<ttFont>
          <CharString index="0">
            -109 77 rlineto
            1 -3 -27 callsubr
            37 callgsubr
            -3 hvcurveto
            -33 -43 27 callgsubr
            -1 -3 -48 callgsubr
            148 -126 rlineto
            -2 2 25 callgsubr
            4 1 1 2 2 hvcurveto
            148 126 rlineto
            3 2 49 callsubr
            -66 callgsubr
            2 vhcurveto
            -33 43 -23 callgsubr
            -3 hhcurveto
            -2 -2 -13 callgsubr
            hvcurveto
            endchar
          </CharString>
          <CharString index="1">
            74 510 hmoveto
            62 13 22 44 hvcurveto
            -104 callsubr
            -24 269 -50 callsubr
            return
          </CharString>
          <CharString index="2">
            -86 callgsubr
            137 73 30 11 29 vhcurveto
            -22 3 -9 -72 callsubr
            -87 callsubr
            return
          </CharString>
          <CharString index="3">
            218 vlineto
            198 -131 22 -147 -103 -92 -34 -31 -44 vhcurveto
            -4 -2 -5 -4 -5 3 callsubr
            76 callgsubr
            16 -26 rlineto
            -5 3 25 callgsubr
            3 4 2 3 4 hvcurveto
            10 17 33 17 27 hhcurveto
            22 29 -5 -51 hvcurveto
            -33 vlineto
            -100 -9 -94 -46 -113 vvcurveto
            -126 112 -37 106 vhcurveto
            return
          </CharString>
          <CharString index="4">
            54 258 41 callsubr
            -23 -1 -10 -15 -10 -30 -97 callgsubr
            rlineto
            34 -13 -8 11 -24 hhcurveto
            -161 -404 -20 callgsubr
            return
          </CharString>
          <CharString index="5">
            rmoveto
            -51 -12 36 15 -6 hvcurveto
            8 -3 -1 8 -9 hhcurveto
            -58 40 callgsubr
            -6 -3 -113 85 -31 65 65 85 31 113 3 -3 6 -7 hvcurveto
            -58 hlineto
            -9 -1 -8 -8 -3 hvcurveto
            -15 -5 -13 -36 -51 hhcurveto
            endchar
          </CharString>
          <CharString index="6">
            rmoveto
            -31 24 -26 29 -4 vhcurveto
            -24 -55 -31 callgsubr
            46 callgsubr
            5 vhcurveto
            32 hlineto
            10 1 4 9 4 hvcurveto
            35 82 rlineto
            4 9 4 13 11 vvcurveto
            34 -28 27 -34 -33 -29 -27 -34 vhcurveto
            endchar
          </CharString>
          <CharString index="7">
            364 659 672 rmoveto
            18 -6 -10 11 -33 hhcurveto
            -207 hlineto
            -19 -14 -9 -23 -7 2 -9 3 -9 hvcurveto
            50 -165 -32 -123 -104 316 20 callgsubr
            -206 hlineto
            -19 -15 -10 -23 -7 1 -8 4 -9 hvcurveto
            214 -8 callsubr
            82 hlineto
            23 13 16 30 8 hvcurveto
            81 287 88 -288 rlineto
            -19 6 10 -26 29 hhcurveto
            69 hlineto
            24 14 16 30 9 hvcurveto
            194 618 rlineto
            3 11 2 8 5 vvcurveto
            10 -6 3 -12 vhcurveto
            -48 hlineto
            -22 -2 -17 -23 -6 hvcurveto
            -79 -305 rlineto
            return
          </CharString>
          <CharString index="8">
            76 587 42 callgsubr
            -68 callgsubr
            -450 vlineto
            -69 -24 -54 -47 -5 -7 4 10 vhcurveto
            501 vlineto
            -92 callgsubr
            -381 vlineto
            return
          </CharString>
          <CharString index="9">
            154 355 -19 rmoveto
            157 168 74 298 -73 callgsubr
            hvcurveto
            44 372 rmoveto
            -40 callsubr
            -48 callsubr
            return
          </CharString>
          <CharString index="10">
            106 505 627 rmoveto
            -93 callgsubr
            -73 -278 -326 178 -66 142 81 60 26 30 41 hvcurveto
            -14 8 callsubr
            51 -61 callgsubr
            280 vlineto
            -68 callgsubr
            -187 vlineto
            -4 -8 -9 -2 -10 hhcurveto
            -43 -63 42 221 222 63 32 43 hvcurveto
            return
          </CharString>
          <CharString index="11">
            hlineto
            -62 -13 -23 -45 hvcurveto
            return
          </CharString>
          <CharString index="12">
            84 487 81 rmoveto
            -24 callsubr
            202 hlineto
            14 5 7 12 hvcurveto
            27 vlineto
            197 -124 68 -163 -83 callsubr
            return
          </CharString>
          <CharString index="13">
            118 546 41 callsubr
            -85 callsubr
            -17 224 0 vvcurveto
            250 -261 rlineto
            -11 11 13 -10 21 hhcurveto
            170 hlineto
            22 12 11 25 hvcurveto
            637 vlineto
            22 -12 6 -12 vhcurveto
            return
          </CharString>
          <CharString index="14">
            -204 -618 rcurveline
            -4 -11 -2 -8 -6 vvcurveto
            -9 6 -3 10 vhcurveto
            50 25 callsubr
            19 5 hvcurveto
            3 15 rlineto
            137 hlineto
            6 -17 rlineto
            -10 3 12 -19 33 hhcurveto
            return
          </CharString>
          <CharString index="15">
            5 316 479 rmoveto
            9 -4 -12 12 -24 hhcurveto
            -247 hlineto
            -13 -16 -6 -16 -5 1 -8 4 -6 hvcurveto
            248 -478 -72 -156 rlineto
            -4 -8 -2 -5 -4 vvcurveto
            -7 5 -2 10 vhcurveto
            63 hlineto
            18 1 7 17 8 hvcurveto
            276 651 rlineto
            3 8 2 6 4 vvcurveto
            6 -4 2 -10 vhcurveto
            -57 2 callgsubr
            -179 rlineto
            return
          </CharString>
          <CharString index="16">
            22 callsubr
            358 vlineto
            9 9 17 10 -83 callgsubr
            return
          </CharString>
          <CharString index="17">
            -74 callsubr
            -10 30 96 -29 102 hhcurveto
            162 77 66 80 10 hvcurveto
            -70 callsubr
            return
          </CharString>
          <CharString index="18">
            rmoveto
            -81 callsubr
            214 -82 callgsubr
            return
          </CharString>
          <CharString index="19">
            45 68 -89 callsubr
            return
          </CharString>
          <CharString index="20">
            454 -19 callgsubr
            -31 hlineto
            -17 -3 -12 -11 hvcurveto
            -398 vlineto
            -6 -9 -19 -8 -15 hhcurveto
            -29 -11 17 37 hvcurveto
            return
          </CharString>
          <CharString index="21">
            vhcurveto
            -218 -96 callsubr
            return
          </CharString>
          <CharString index="22">
            -20 -3 -12 -11 1 hvcurveto
            3 -35 17 -206 0 vvcurveto
            -238 236 rlineto
            16 -16 -15 12 -25 hhcurveto
            -165 hlineto
            -26 -14 -11 -25 hvcurveto
            -637 vlineto
            -22 12 -6 12 vhcurveto
            61 hlineto
            18 3 12 11 -1 hvcurveto
            -3 35 return
          </CharString>
          <CharString index="23">
            rmoveto
            -49 callsubr
            2 hhcurveto
            3 return
          </CharString>
          <CharString index="24">
            -65 callgsubr
            -202 154 -65 147 return
          </CharString>
          <CharString index="25">
            90 52 612 rmoveto
            -13 10 -3 11 21 156 30 0 vhcurveto
            -205 -532 rlineto
            -11 -28 -7 -17 -19 vvcurveto
            -16 8 -14 32 vhcurveto
            521 hlineto
            22 6 10 callgsubr
            65 vlineto
            13 -10 3 -11 -18 -183 -30 0 vhcurveto
            212 552 rlineto
            6 15 6 18 13 vvcurveto
            22 -14 6 -24 vhcurveto
            -500 hlineto
            -22 -6 -12 -12 hvcurveto
            return
          </CharString>
          <CharString index="26">
            -35 callsubr
            62 vhcurveto
            return
          </CharString>
          <CharString index="27">
            43 callsubr
            -121 255 vlineto
            114 35 32 44 vhcurveto
            19 8 -6 9 hhcurveto
            2 4 0 9 hvcurveto
            34 -44 callsubr
            -246 -69 callgsubr
            121 -135 vlineto
            44 callsubr
            211 hlineto
            64 10 21 47 hvcurveto
            135 return
          </CharString>
          <CharString index="28">
            61 340 rmoveto
            -193 vlineto
            -55 callsubr
            197 88 vlineto
            -56 callsubr
            return
          </CharString>
          <CharString index="29">
            270 220 56 rmoveto
            -91 -34 53 58 54 33 49 93 7 hvcurveto
            -8 0 -9 -8 vvcurveto
            -83 25 -61 40 -41 vhcurveto
            -7 -17 -24 -4 -25 hhcurveto
            435 344 rmoveto
            41 35 -30 -104 hvcurveto
            -154 hlineto
            117 4 44 17 30 hhcurveto
            -481 28 rmoveto
            26 21 -7 -51 hvcurveto
            -32 vlineto
            -99 -8 -96 -43 -120 vvcurveto
            -114 80 -60 113 43 45 9 18 43 vhcurveto
            -26 51 53 -11 59 hhcurveto
            114 93 38 35 43 66 callgsubr
            -2 3 vhcurveto
            -17 29 -23 callgsubr
            -3 -7 -23 -25 -38 hhcurveto
            -24 callsubr
            221 38 hlineto
            217 -126 56 -106 -55 -48 -16 -20 -32 vhcurveto
            22 -31 -32 14 -64 hhcurveto
            -106 -92 -40 -31 -43 hvcurveto
            -4 -2 -5 -4 -5 vvcurveto
            -2 0 -3 76 callgsubr
            17 -27 rlineto
            -4 3 -7 callgsubr
            hhcurveto
            3 3 2 3 4 hvcurveto
            11 18 35 18 28 hhcurveto
            return
          </CharString>
          <CharString index="30">
            91 133 188 rmoveto
            -91 -9 -40 -32 -58 7 callgsubr
            27 callgsubr
            0 -2 26 callgsubr
            -1 4 -1 vhcurveto
            -6 26 97 -25 108 hhcurveto
            162 87 94 115 10 hvcurveto
            29 355 rlineto
            57 5 24 41 57 7 callsubr
            rlineto
            1 3 0 62 callgsubr
            1 -3 1 vhcurveto
            6 -26 -20 callsubr
            return
          </CharString>
          <CharString index="31">
            -34 26 -29 33 -5 vhcurveto
            -28 -61 67 callsubr
            -3 45 callgsubr
            7 vhcurveto
            35 hlineto
            11 1 5 9 5 hvcurveto
            39 92 rlineto
            4 10 4 14 12 vvcurveto
            37 -31 31 -37 -38 -31 -31 -37 vhcurveto
            endchar
          </CharString>
          <CharString index="32">
            -69 callsubr
            -182 124 hlineto
            return
          </CharString>
          <CharString index="33">
            53 393 517 rmoveto
            -116 -109 -29 -100 -15 hvcurveto
            -34 -235 rlineto
            -73 -11 -47 -3 -43 hhcurveto
            -9 -3 -4 -5 -1 hvcurveto
            -5 -27 24 callsubr
            -2 vvcurveto
            -6 3 -1 5 -2 vhcurveto
            return
          </CharString>
          <CharString index="34">
            3 3 -1 2 hhcurveto
            return
          </CharString>
          <CharString index="35">
            17 vhcurveto
            31 -61 callgsubr
            return
          </CharString>
          <CharString index="36">
            50 callgsubr
            55 callsubr
            -20 38 56 -12 86 hhcurveto
            115 167 30 235 hvcurveto
            379 vlineto
            -16 callgsubr
            -67 -4 -38 -30 hvcurveto
            -480 vlineto
            -51 -20 -25 -41 vhcurveto
            -28 -7 6 -8 8 callgsubr
            return
          </CharString>
          <CharString index="37">
            27 228 rlineto
            49 6 22 18 37 10 11 68 callgsubr
            2 0 8 1 hvcurveto
            6 29 rlineto
            1 3 1 4 2 vvcurveto
            7 -5 2 -3 1 vhcurveto
            19 -40 -87 21 -84 hhcurveto
            return
          </CharString>
          <CharString index="38">
            -61 callsubr
            49 -49 callgsubr
            return
          </CharString>
          <CharString index="39">
            47 callsubr
            4 -8 6 vhcurveto
            -22 16 rlineto
            4 -6 -4 2 -57 callgsubr
            -2 4 3 -2 13 callgsubr
            -164 531 -3 callsubr
            -74 74 -93 -92 -74 -51 callsubr
            133 -285 -41 callgsubr
            return
          </CharString>
          <CharString index="40">
            9 callsubr
            2 4 vvcurveto
            1 -1 2 -1 2 vhcurveto
            -21 33 rlineto
            3 -2 76 callsubr
            -7 -21 -21 -32 hhcurveto
            -43 -63 34 241 hvcurveto
            return
          </CharString>
          <CharString index="41">
            -32 callgsubr
            -45 callgsubr
            return
          </CharString>
          <CharString index="42">
            617 -63 callgsubr
            -128 622 rmoveto
            -259 vlineto
            -27 8 -13 38 vhcurveto
            126 hlineto
            51 -3 23 17 hvcurveto
            292 vlineto
            24 2 24 -38 -3 -13 -1 -1 -6 -19 callsubr
            -26 callsubr
            return
          </CharString>
          <CharString index="43">
            134 163 630 rmoveto
            -562 vlineto
            -35 callsubr
            61 vhcurveto
            218 hlineto
            59 13 23 44 hvcurveto
            563 vlineto
            -58 callsubr
            return
          </CharString>
          <CharString index="44">
            45 64 callgsubr
            60 -24 callgsubr
            -60 -19 callsubr
            -96 callsubr
            return
          </CharString>
          <CharString index="45">
            -32 callsubr
            -298 168 -74 157 return
          </CharString>
          <CharString index="46">
            6 -64 callgsubr
            return
          </CharString>
          <CharString index="47">
            45 vlineto
            13 -9 57 callgsubr
            -169 -25 0 vhcurveto
            396 vlineto
            return
          </CharString>
          <CharString index="48">
            rmoveto
            -69 56 -56 70 69 55 56 69 69 -55 57 -69 -70 -56 -57 -69 vhcurveto
            72 1 rmoveto
            29 24 24 30 29 23 -24 -29 -31 -23 -23 -29 -30 -24 23 31 vhcurveto
            endchar
          </CharString>
          <CharString index="49">
            0 112 -24 22 10 9 3 13 vhcurveto
            55 vlineto
            12 -10 12 -22 vhcurveto
            -606 hlineto
            -22 -10 -12 -12 hvcurveto
            -55 vlineto
            -13 8 -3 11 22 112 24 0 vhcurveto
            return
          </CharString>
          <CharString index="50">
            -74 callgsubr
            353 vlineto
            45 -33 callsubr
            return
          </CharString>
          <CharString index="51">
            -14 callgsubr
            -88 224 hlineto
            20 -15 6 -9 -12 -16 -5 -9 -24 vhcurveto
            -270 -99 rlineto
            -13 -5 -1 -11 -10 vvcurveto
            -111 -25 callsubr
            return
          </CharString>
          <CharString index="52">
            -150 93 -14 124 86 88 22 21 49 vhcurveto
            4 1 7 4 12 vvcurveto
            38 vlineto
            3 68 callsubr
            -7 -18 -7 -14 hhcurveto
            -32 -15 17 46 hvcurveto
            return
          </CharString>
          <CharString index="53">
            10 22 45 hvcurveto
            365 vlineto
            47 -10 21 return
          </CharString>
          <CharString index="54">
            vlineto
            -8 4 -3 return
          </CharString>
          <CharString index="55">
            4 vvcurveto
            2 0 -35 callgsubr
            return
          </CharString>
          <CharString index="56">
            -74 -93 vhcurveto
            228 -83 rmoveto
            -27 -24 23 60 61 24 23 27 27 24 -23 -61 -60 -24 -23 -27 hvcurveto
            return
          </CharString>
          <CharString index="57">
            rmoveto
            -207 vlineto
            -94 -31 45 56 55 31 51 94 hvcurveto
            return
          </CharString>
          <CharString index="58">
            5 callsubr
            -1 return
          </CharString>
          <CharString index="59">
            -163 -53 -51 -53 -53 -53 51 163 vhcurveto
            return
          </CharString>
          <CharString index="60">
            22 -12 1 -12 vhcurveto
            return
          </CharString>
          <CharString index="61">
            hlineto
            -47 callgsubr
            return
          </CharString>
          <CharString index="62">
            -42 callgsubr
            -129 -873 -71 callsubr
            endchar
          </CharString>
          <CharString index="63">
            vlineto
            12 -7 5 -5 2 vhcurveto
            22 -44 -90 19 -72 hhcurveto
            -124 -139 26 callsubr
            return
          </CharString>
          <CharString index="64">
            35 callsubr
            35 31 44 vhcurveto
            19 8 -5 9 hhcurveto
            2 4 0 8 hvcurveto
            35 -44 callsubr
            -295 -69 callgsubr
            vlineto
            return
          </CharString>
          <CharString index="65">
            6 -29 callgsubr
            return
          </CharString>
          <CharString index="66">
            -10 callsubr
            5 8 9 callgsubr
            -4 76 callgsubr
            return
          </CharString>
          <CharString index="67">
            -8 callgsubr
            53 53 -51 -163 return
          </CharString>
          <CharString index="68">
            hlineto
            76 4 50 29 hvcurveto
            return
          </CharString>
          <CharString index="69">
            -147 -154 return
          </CharString>
          <CharString index="70">
            hlineto
            -23 -4 -18 -22 -8 hvcurveto
            -78 -225 -86 236 rlineto
            10 return
          </CharString>
          <CharString index="71">
            5 -29 hhcurveto
            -200 -96 callsubr
            return
          </CharString>
          <CharString index="72">
            -45 13 -23 return
          </CharString>
          <CharString index="73">
            -655 rlineto
            -4 -6 -2 -5 -4 vvcurveto
            -8 7 -5 return
          </CharString>
          <CharString index="74">
            -11 23 -60 -19 callsubr
            -96 callsubr
            return
          </CharString>
          <CharString index="75">
            -157 -168 -73 -298 return
          </CharString>
          <CharString index="76">
            -3 -3 -7 hvcurveto
            return
          </CharString>
          <CharString index="77">
            -12 callsubr
            3 return
          </CharString>
          <CharString index="78">
            659 rmoveto
            3 5 2 4 4 vvcurveto
            6 -3 return
          </CharString>
          <CharString index="79">
            -33 hhcurveto
            -193 hlineto
            -12 -14 -6 return
          </CharString>
          <CharString index="80">
            -2 2 -2 return
          </CharString>
          <CharString index="81">
            -29 rlineto
            -13 -2 -1 -4 -6 vvcurveto
            -1 0 -5 0 vhcurveto
            3 -38 rlineto
            -6 1 5 -3 6 3 3 1 1 hhcurveto
            return
          </CharString>
          <CharString index="82">
            -51 vlineto
            -7 -3 -4 -6 71 callsubr
            return
          </CharString>
          <CharString index="83">
            -38 -45 28 97 -11 hvcurveto
            return
          </CharString>
          <CharString index="84">
            -2 4 callgsubr
            return
          </CharString>
          <CharString index="85">
            -114 -21 -99 -66 -160 vvcurveto
            -193 142 -56 143 -4 vhcurveto
            213 hlineto
            62 13 22 callsubr
            return
          </CharString>
          <CharString index="86">
            hlineto
            -15 -18 -11 -23 -7 1 -7 4 -9 hvcurveto
            return
          </CharString>
          <CharString index="87">
            -93 18 -95 hhcurveto
            -116 -120 -42 -143 -14 hvcurveto
            return
          </CharString>
          <CharString index="88">
            vhcurveto
            -214 return
          </CharString>
          <CharString index="89">
            3 -2 vhcurveto
            return
          </CharString>
          <CharString index="90">
            -7 hvcurveto
            -83 -9 callgsubr
            return
          </CharString>
          <CharString index="91">
            hhcurveto
            -65 callgsubr
            return
          </CharString>
          <CharString index="92">
            -101 rlineto
            -2 -5 -1 -4 -4 vvcurveto
            -5 4 -4 10 vhcurveto
            59 hlineto
            18 2 7 17 7 hvcurveto
            64 150 rlineto
            7 18 7 22 20 vvcurveto
            61 callsubr
          </CharString>
          <CharString index="93">
            hlineto
            17 3 12 11 hvcurveto
            return
          </CharString>
          <CharString index="94">
            vvcurveto
            -10 7 1 4 38 callsubr
            -57 -20 15 -16 -11 callsubr
            32 92 31 callsubr
            return
          </CharString>
          <CharString index="95">
            vlineto
            7 -3 return
          </CharString>
          <CharString index="96">
            hhcurveto
            -3 -4 -2 -6 hvcurveto
            -47 vlineto
            -29 68 -6 27 86 84 return
          </CharString>
          <CharString index="97">
            71 29 45 4 11 26 vhcurveto
            12 return
          </CharString>
          <CharString index="98">
            vlineto
            -22 12 -1 12 vhcurveto
            return
          </CharString>
          <CharString index="99">
            -599 rlineto
            -19 7 9 -26 29 hhcurveto
            return
          </CharString>
          <CharString index="100">
            rlineto
            20 -2 12 12 13 vvcurveto
            37 vlineto
            12 -10 13 -22 -1 vhcurveto
            -126 -10 rlineto
            return
          </CharString>
          <CharString index="101">
            4 callsubr
            -2 return
          </CharString>
          <CharString index="102">
            rmoveto
            2 4 1 56 callgsubr
            4 -2 3 -4 2 vhcurveto
            return
          </CharString>
          <CharString index="103">
            1 callgsubr
            -78 35 callsubr
            return
          </CharString>
          <CharString index="104">
            rmoveto
            -92 74 -74 92 93 74 74 92 93 return
          </CharString>
          <CharString index="105">
            -56 426 203 rmoveto
            19 callsubr
            -352 hlineto
            -8 -3 -4 -17 callsubr
            return
          </CharString>
          <CharString index="106">
            -50 callgsubr
            -14 -19 -15 -63 hhcurveto
            -56 -18 19 return
          </CharString>
          <CharString index="107">
            -5 vhcurveto
            70 -46 rlineto
            -3 4 4 -1 4 hhcurveto
            7 7 5 7 4 hvcurveto
            return
          </CharString>
          <CharString index="108">
            2 callsubr
            83 -30 callsubr
            -8 vhcurveto
            return
          </CharString>
          <CharString index="109">
            7 -64 callgsubr
            return
          </CharString>
          <CharString index="110">
            vvcurveto
            29 callsubr
            return
          </CharString>
          <CharString index="111">
            1 vvcurveto
            3 return
          </CharString>
          <CharString index="112">
            -2 2 2 return
          </CharString>
          <CharString index="113">
            -77 callgsubr
            209 -39 callsubr
            return
          </CharString>
          <CharString index="114">
            hhcurveto
            2 3 1 4 1 hvcurveto
            7 35 return
          </CharString>
          <CharString index="115">
            vlineto
            3 callgsubr
            return
          </CharString>
          <CharString index="116">
            2 2 4 return
          </CharString>
          <CharString index="117">
            -2 vhcurveto
            33 return
          </CharString>
          <CharString index="118">
            hhcurveto
            4 1 return
          </CharString>
          <CharString index="119">
            8 hhcurveto
            5 5 69 callgsubr
            return
          </CharString>
          <CharString index="120">
            hlineto
            -12 -11 -1 -22 return
          </CharString>
          <CharString index="121">
            3 hvcurveto
            33 return
          </CharString>
          <CharString index="122">
            vlineto
            126 -14 -7 callsubr
            endchar
          </CharString>
          <CharString index="123">
            vlineto
            36 callsubr
            -38 13 callsubr
            hvcurveto
            return
          </CharString>
          <CharString index="124">
            1 2 1 return
          </CharString>
          <CharString index="125">
            3 2 2 return
          </CharString>
          <CharString index="126">
            2 callsubr
            83 -12 callsubr
            4 -8 vhcurveto
            return
          </CharString>
          <CharString index="127">
            14 callgsubr
            13 return
          </CharString>
          <CharString index="128">
            rlineto
            17 callsubr
            return
          </CharString>
          <CharString index="129">
            23 45 hvcurveto
            return
          </CharString>
          <CharString index="130">
            121 -2 51 -106 -162 vvcurveto
            return
          </CharString>
          <CharString index="131">
            rlineto
            77 callgsubr
            -4 return
          </CharString>
          <CharString index="132">
            hlineto
            59 callsubr
            return
          </CharString>
          <CharString index="133">
            -41 -211 hvcurveto
            return
          </CharString>
          <CharString index="134">
            2 hhcurveto
            3 3 2 4 2 hvcurveto
            42 72 rlineto
            2 2 0 2 2 vvcurveto
            4 -2 return
          </CharString>
          <CharString index="135">
            103 -46 callgsubr
            return
          </CharString>
          <CharString index="136">
            -2 1 -3 return
          </CharString>
          <CharString index="137">
            rmoveto
            -100 -43 -78 -101 -13 vhcurveto
            379 vlineto
            101 -12 43 -75 -101 vvcurveto
            endchar
          </CharString>
          <CharString index="138">
            51 -26 48 -92 14 vhcurveto
            return
          </CharString>
          <CharString index="139">
            hlineto
            -12 -12 -1 -22 hvcurveto
            return
          </CharString>
          <CharString index="140">
            35 vlineto
            12 return
          </CharString>
          <CharString index="141">
            rlineto
            -3 -3 return
          </CharString>
          <CharString index="142">
            303 hlineto
            115 return
          </CharString>
          <CharString index="143">
            14 -4 9 -17 vhcurveto
            return
          </CharString>
          <CharString index="144">
            -3 -1 hvcurveto
            -27 -8 -13 -21 -22 -25 -63 62 -53 hhcurveto
            -49 -47 -32 return
          </CharString>
          <CharString index="145">
            68 26 -22 -33 -27 -20 -24 -57 vhcurveto
            return
          </CharString>
          <CharString index="146">
            -4 62 callsubr
            return
          </CharString>
          <CharString index="147">
            179 rmoveto
            6 4 3 7 hvcurveto
            88 vlineto
            7 -29 callgsubr
            return
          </CharString>
          <CharString index="148">
            701 rmoveto
            return
          </CharString>
          <CharString index="149">
            16 -1 20 13 vvcurveto
            107 vlineto
            10 return
          </CharString>
          <CharString index="150">
            26 callsubr
            -295 return
          </CharString>
          <CharString index="151">
            -45 14 -23 62 vhcurveto
            return
          </CharString>
          <CharString index="152">
            -2 2 vhcurveto
            return
          </CharString>
          <CharString index="153">
            -4 vvcurveto
            -2 0 -27 callsubr
            vhcurveto
            42 -72 rlineto
            -4 2 return
          </CharString>
          <CharString index="154">
            617 -29 callsubr
            return
          </CharString>
          <CharString index="155">
            hlineto
            -7 3 -3 7 vhcurveto
            84 hlineto
            7 3 4 6 hvcurveto
            return
          </CharString>
          <CharString index="156">
            2 3 2 return
          </CharString>
          <CharString index="157">
            rlineto
            2 -2 return
          </CharString>
          <CharString index="158">
            -8 -4 -7 -4 -1 hvcurveto
            -10 -36 rlineto
            -8 -2 6 return
          </CharString>
          <CharString index="159">
            3 callgsubr
            52 hlineto
            13 10 1 22 hvcurveto
            return
          </CharString>
          <CharString index="160">
            -6 vhcurveto
            140 -189 rlineto
            return
          </CharString>
          <CharString index="161">
            -208 rlineto
            -4 return
          </CharString>
          <CharString index="162">
            -3 -18 callsubr
            return
          </CharString>
          <CharString index="163">
            1 2 3 return
          </CharString>
          <CharString index="164">
            19 -33 hhcurveto
            return
          </CharString>
          <CharString index="165">
            -1 -1 -4 return
          </CharString>
          <CharString index="166">
            22 3 12 return
          </CharString>
          <CharString index="167">
            hhcurveto
            65 callsubr
            return
          </CharString>
          <CharString index="168">
            -45 callgsubr
            endchar
          </CharString>
          <CharString index="169">
            3 -6 hhcurveto
            return
          </CharString>
          <CharString index="170">
            -2 -2 -3 return
          </CharString>
          <CharString index="171">
            vhcurveto
            -70 46 rlineto
            3 -4 -4 1 -4 hhcurveto
            return
          </CharString>
          <CharString index="172">
            -218 -96 callsubr
            498 return
          </CharString>
          <CharString index="173">
            3 44 callgsubr
            return
          </CharString>
          <CharString index="174">
            rlineto
            -2 -3 0 return
          </CharString>
          <CharString index="175">
            -2 3 -3 vhcurveto
            return
          </CharString>
          <CharString index="176">
            hhcurveto
            -4 -3 return
          </CharString>
          <CharString index="177">
            47 vlineto
            6 return
          </CharString>
          <CharString index="178">
            hvcurveto
            -39 -53 callsubr
            6 vhcurveto
            return
          </CharString>
          <CharString index="179">
            2 vvcurveto
            3 -1 4 callgsubr
            vhcurveto
            return
          </CharString>
          <CharString index="180">
            rmoveto
            6 -4 -7 6 return
          </CharString>
          <CharString index="181">
            -5 62 callsubr
            -5 return
          </CharString>
          <CharString index="182">
            -3 -4 -7 hvcurveto
            return
          </CharString>
          <CharString index="183">
            -1 1 -4 return
          </CharString>
          <CharString index="184">
            -2 -3 -1 return
          </CharString>
        <CharString name=".notdef">
          -306 endchar
        </CharString>
        <CharString name="A">
          -103 callsubr
          endchar
        </CharString>
        <CharString name="AE">
          -60 callgsubr
          endchar
        </CharString>
        <CharString name="AEacute">
          -60 callgsubr
          401 713 -107 callgsubr
        </CharString>
        <CharString name="Aacute">
          -103 callsubr
          315 758 -107 callgsubr
        </CharString>
        <CharString name="Abreve">
          -103 callsubr
          175 736 -102 callsubr
        </CharString>
        <CharString name="Acircumflex">
          -103 callsubr
          285 643 -84 callsubr
          2 1 4 14 callsubr
          43 rlineto
          2 2 1 3 2 vvcurveto
          2 -23 callsubr
          vhcurveto
          -148 126 rlineto
          1 -2 -1 2 -4 hhcurveto
          -3 -2 -13 callgsubr
          hvcurveto
          -148 -126 34 callsubr
          -1 -2 -2 3 callsubr
          1 10 callsubr
          -43 -103 callgsubr
          109 77 rlineto
          endchar
        </CharString>
        <CharString name="Adieresis">
          -103 callsubr
          16 723 -100 callgsubr
        </CharString>
        <CharString name="Agrave">
          -103 callsubr
          221 643 -84 callsubr
          3 1 4 2 hvcurveto
          33 48 rlineto
          2 2 1 3 -6 callsubr
          -35 callgsubr
          -173 131 rlineto
          2 -52 callgsubr
          -3 -3 hvcurveto
          -44 -63 34 callsubr
          -12 callgsubr
          -3 2 -2 -18 callsubr
          endchar
        </CharString>
        <CharString name="Amacron">
          -103 callsubr
          305 673 rmoveto
          -61 callsubr
          78 -30 callsubr
          -7 vhcurveto
          -260 -46 callsubr
          -78 -53 callsubr
          6 vhcurveto
          endchar
        </CharString>
        <CharString name="Aogonek">
          54 258 41 callsubr
          -23 -1 -10 -15 -10 -30 -93 callsubr
          165 hlineto
          -73 -35 -47 -54 -50 vvcurveto
          -83 74 -26 -10 callsubr
          4 8 4 12 vvcurveto
          46 vlineto
          7 48 callgsubr
          42 81 56 68 29 hvcurveto
          13 5 15 8 21 vvcurveto
          7 -1 7 -3 9 vhcurveto
          -225 599 rlineto
          34 -13 -8 11 -24 hhcurveto
          -161 -404 -20 callgsubr
          endchar
        </CharString>
        <CharString name="Aring">
          54 169 801 rmoveto
          -48 26 -41 39 -21 vhcurveto
          -8 -7 -5 -13 -6 -16 -97 callgsubr
          -7 18 -5 12 -8 6 rlinecurve
          38 22 25 40 47 vvcurveto
          69 -56 57 -69 -69 -56 -57 -69 vhcurveto
          1 -504 -20 callgsubr
          122 696 rmoveto
          30 24 23 29 30 23 -23 -30 -31 -23 -23 -30 -29 -24 23 31 vhcurveto
          endchar
        </CharString>
        <CharString name="Atilde">
          -103 callsubr
          278 798 -102 callgsubr
        </CharString>
        <CharString name="B">
          86 -77 callgsubr
          223 hlineto
          109 122 18 121 47 -24 35 -48 15 hvcurveto
          68 32 42 75 121 vvcurveto
          173 -1 -131 64 -142 60 callsubr
          -177 rmoveto
          -95 -40 -82 -94 -12 vhcurveto
          363 vlineto
          94 -14 40 -67 -93 vvcurveto
          -134 -253 rmoveto
          70 -4 26 -33 -33 vvcurveto
          -34 -28 -29 -68 -2 vhcurveto
          endchar
        </CharString>
        <CharString name="C">
          53 -95 callgsubr
          endchar
        </CharString>
        <CharString name="Cacute">
          70 -95 callgsubr
          96 531 -107 callgsubr
        </CharString>
        <CharString name="Ccaron">
          70 -95 callgsubr
          -44 524 rmoveto
          -107 callsubr
        </CharString>
        <CharString name="Ccedilla">
          70 -84 callgsubr
          -264 142 -89 136 -16 hvcurveto
          -8 -36 -8 -42 -5 vvcurveto
          -10 7 1 3 38 callsubr
          -56 -20 15 -16 hhcurveto
          -4 -4 -2 -6 hvcurveto
          -47 vlineto
          -29 69 -6 26 86 84 32 92 31 callsubr
          7 33 99 4 79 35 38 29 rlinecurve
          -67 callsubr
          endchar
        </CharString>
        <CharString name="Ccircumflex">
          70 -95 callgsubr
          66 416 -84 callsubr
          2 1 4 14 callsubr
          43 rlineto
          2 2 1 3 2 vvcurveto
          2 -23 callsubr
          vhcurveto
          -148 126 rlineto
          1 -2 -1 2 -4 hhcurveto
          -3 -2 -13 callgsubr
          hvcurveto
          -148 -126 34 callsubr
          -1 -2 -2 3 callsubr
          1 10 callsubr
          -43 -103 callgsubr
          109 77 rlineto
          endchar
        </CharString>
        <CharString name="Cdotaccent">
          70 -95 callgsubr
          -116 496 -78 callgsubr
        </CharString>
        <CharString name="D">
          -30 callgsubr
          endchar
        </CharString>
        <CharString name="Dcaron">
          -30 callgsubr
          -296 494 rmoveto
          -107 callsubr
        </CharString>
        <CharString name="Dcroat">
          -53 callgsubr
        </CharString>
        <CharString name="E">
          -104 callgsubr
          endchar
        </CharString>
        <CharString name="Eacute">
          -104 callgsubr
          55 408 -107 callgsubr
        </CharString>
        <CharString name="Ebreve">
          -104 callgsubr
          -85 386 -102 callsubr
        </CharString>
        <CharString name="Ecaron">
          -104 callgsubr
          -85 401 rmoveto
          -107 callsubr
        </CharString>
        <CharString name="Ecircumflex">
          -104 callgsubr
          25 293 -84 callsubr
          2 1 4 14 callsubr
          43 rlineto
          2 2 1 3 2 vvcurveto
          2 -23 callsubr
          vhcurveto
          -148 126 rlineto
          1 -2 -1 2 -4 hhcurveto
          -3 -2 -13 callgsubr
          hvcurveto
          -148 -126 34 callsubr
          -1 -2 -2 3 callsubr
          1 10 callsubr
          -43 -103 callgsubr
          109 77 rlineto
          endchar
        </CharString>
        <CharString name="Edieresis">
          -104 callgsubr
          -244 373 -100 callgsubr
        </CharString>
        <CharString name="Edotaccent">
          -104 callgsubr
          -157 373 -78 callgsubr
        </CharString>
        <CharString name="Egrave">
          -104 callgsubr
          -39 293 -84 callsubr
          3 1 4 2 hvcurveto
          33 48 rlineto
          2 2 1 3 -6 callsubr
          -35 callgsubr
          -173 131 rlineto
          2 -52 callgsubr
          -3 -3 hvcurveto
          -44 -63 34 callsubr
          -12 callgsubr
          -3 2 -2 -18 callsubr
          endchar
        </CharString>
        <CharString name="Emacron">
          -104 callgsubr
          45 323 rmoveto
          -61 callsubr
          78 -30 callsubr
          -7 vhcurveto
          -260 -46 callsubr
          -78 -53 callsubr
          6 vhcurveto
          endchar
        </CharString>
        <CharString name="Eng">
          118 337 -204 50 callgsubr
          -4 3 -1 vhcurveto
          -21 41 31 -9 42 hhcurveto
          68 101 24 179 hvcurveto
          720 vlineto
          22 -12 6 -12 vhcurveto
          -59 hlineto
          -85 callsubr
          -22 279 0 vvcurveto
          398 -358 rlineto
          -44 vlineto
          -74 -35 -28 -51 vhcurveto
          -45 -40 16 -8 8 callgsubr
          endchar
        </CharString>
        <CharString name="Eogonek">
          83 591 456 rmoveto
          -75 callsubr
          0 147 -24 27 10 8 3 13 vhcurveto
          33 callsubr
          -4 12 -22 vhcurveto
          -441 -62 callgsubr
          358 hlineto
          -74 -35 -44 -52 -48 -1 callsubr
          27 41 77 57 70 26 hvcurveto
          20 8 5 4 12 vvcurveto
          -60 callsubr
          endchar
        </CharString>
        <CharString name="Eth">
          -53 callgsubr
        </CharString>
        <CharString name="Euro">
          79 74 225 rmoveto
          -184 31 147 -60 124 hhcurveto
          103 75 37 31 42 hvcurveto
          3 49 callsubr
          5 vvcurveto
          2 0 2 45 callsubr
          -17 63 callgsubr
          -4 -1 2 -6 -7 -19 -20 -33 hhcurveto
          -36 -51 27 120 -15 hvcurveto
          74 hlineto
          8 4 6 5 1 hvcurveto
          10 35 rlineto
          9 2 -6 4 -7 hhcurveto
          -90 15 hlineto
          9 0 8 1 8 vhcurveto
          105 hlineto
          8 4 7 4 1 hvcurveto
          10 36 rlineto
          8 2 -6 5 -8 hhcurveto
          -111 hlineto
          111 16 49 25 35 -54 callgsubr
          2 vvcurveto
          4 -3 2 -3 2 vhcurveto
          32 -42 -75 36 -103 hhcurveto
          -122 -144 -57 -176 -34 hvcurveto
          -36 hlineto
          51 callsubr
          -5 7 hhcurveto
          40 hlineto
          -8 0 -8 -9 vvcurveto
          -15 -28 vlineto
          51 callsubr
          -4 7 hhcurveto
          endchar
        </CharString>
        <CharString name="F">
          65 408 18 callgsubr
          0 158 -34 25 11 9 3 13 vhcurveto
          45 vlineto
          15 -8 9 -16 vhcurveto
          -453 -62 callgsubr
          215 hlineto
          63 11 44 29 hvcurveto
          endchar
        </CharString>
        <CharString name="G">
          -97 callsubr
          endchar
        </CharString>
        <CharString name="Gbreve">
          -97 callsubr
          -158 235 -102 callsubr
        </CharString>
        <CharString name="Gcircumflex">
          -97 callsubr
          -48 142 -84 callsubr
          2 1 4 14 callsubr
          43 rlineto
          2 2 1 3 2 vvcurveto
          2 -23 callsubr
          vhcurveto
          -148 126 rlineto
          1 -2 -1 2 -4 hhcurveto
          -3 -2 -13 callgsubr
          hvcurveto
          -148 -126 34 callsubr
          -1 -2 -2 3 callsubr
          1 10 callsubr
          -43 -103 callgsubr
          109 77 rlineto
          endchar
        </CharString>
        <CharString name="Gcommaaccent">
          -97 callsubr
          -231 -749 -101 callsubr
        </CharString>
        <CharString name="Gdotaccent">
          -97 callsubr
          -230 222 -78 callgsubr
        </CharString>
        <CharString name="H">
          106 492 23 rmoveto
          52 callsubr
          233 47 vlineto
          -61 callsubr
          49 -30 callsubr
          -7 vhcurveto
          -47 352 hlineto
          22 -10 1 -13 vhcurveto
          -50 hlineto
          -17 -5 -12 -11 hvcurveto
          -352 -83 294 vlineto
          -92 callgsubr
          -565 vlineto
          -81 callsubr
          209 -39 callsubr
          177 83 vlineto
          endchar
        </CharString>
        <CharString name="Hbar">
          86 592 42 callgsubr
          22 -10 1 -13 vhcurveto
          -50 hlineto
          -18 -4 -12 -11 hvcurveto
          -183 -83 125 vlineto
          -92 callgsubr
          -138 -45 vlineto
          74 callgsubr
          -49 -53 callsubr
          6 vhcurveto
          45 -356 hlineto
          -81 callsubr
          209 -39 callsubr
          177 83 -233 vlineto
          52 callsubr
          401 44 47 callgsubr
          -44 hlineto
          -178 -169 rmoveto
          98 83 -98 vlineto
          endchar
        </CharString>
        <CharString name="Hcircumflex">
          106 492 23 rmoveto
          52 callsubr
          233 47 vlineto
          -61 callsubr
          49 -30 callsubr
          -7 vhcurveto
          -47 352 hlineto
          22 -10 1 -13 vhcurveto
          -50 hlineto
          -17 -5 -12 -11 hvcurveto
          -352 -83 294 vlineto
          -92 callgsubr
          -565 vlineto
          -81 callsubr
          209 -39 callsubr
          177 83 vlineto
          -47 493 -84 callsubr
          2 1 4 14 callsubr
          43 rlineto
          2 2 1 3 2 vvcurveto
          2 -23 callsubr
          vhcurveto
          -148 126 rlineto
          1 -2 -1 2 -4 hhcurveto
          -3 -2 -13 callgsubr
          hvcurveto
          -148 -126 34 callsubr
          -1 -2 -2 3 callsubr
          1 10 callsubr
          -43 -103 callgsubr
          109 77 rlineto
          endchar
        </CharString>
        <CharString name="I">
          -101 -87 callgsubr
          endchar
        </CharString>
        <CharString name="IJ">
          439 -87 callgsubr
          420 -604 50 callgsubr
          -3 3 -1 vhcurveto
          -21 41 63 -12 85 hhcurveto
          116 171 29 236 hvcurveto
          387 vlineto
          -4 callgsubr
          -218 hlineto
          -67 -4 -37 -31 hvcurveto
          -489 vlineto
          -51 -20 -25 -41 vhcurveto
          -28 -18 9 -7 8 callgsubr
          endchar
        </CharString>
        <CharString name="Iacute">
          -101 -87 callgsubr
          324 231 -107 callgsubr
        </CharString>
        <CharString name="Ibreve">
          -101 -87 callgsubr
          184 209 -102 callsubr
        </CharString>
        <CharString name="Icircumflex">
          -101 -87 callgsubr
          294 116 -84 callsubr
          2 1 4 14 callsubr
          43 rlineto
          2 2 1 3 2 vvcurveto
          2 -23 callsubr
          vhcurveto
          -148 126 rlineto
          1 -2 -1 2 -4 hhcurveto
          -3 -2 -13 callgsubr
          hvcurveto
          -148 -126 34 callsubr
          -1 -2 -2 3 callsubr
          1 10 callsubr
          -43 -103 callgsubr
          109 77 rlineto
          endchar
        </CharString>
        <CharString name="Idieresis">
          -101 -87 callgsubr
          25 196 -100 callgsubr
        </CharString>
        <CharString name="Idotaccent">
          -101 -87 callgsubr
          112 196 -78 callgsubr
        </CharString>
        <CharString name="Igrave">
          -101 -87 callgsubr
          230 116 -84 callsubr
          3 1 4 2 hvcurveto
          33 48 rlineto
          2 2 1 3 -6 callsubr
          -35 callgsubr
          -173 131 rlineto
          2 -52 callgsubr
          -3 -3 hvcurveto
          -44 -63 34 callsubr
          -12 callgsubr
          -3 2 -2 -18 callsubr
          endchar
        </CharString>
        <CharString name="Imacron">
          -101 -87 callgsubr
          314 146 rmoveto
          -61 callsubr
          78 -30 callsubr
          -7 vhcurveto
          -260 -46 callsubr
          -78 -53 callsubr
          6 vhcurveto
          endchar
        </CharString>
        <CharString name="Iogonek">
          -101 -77 callgsubr
          84 -18 callgsubr
          10 -79 callgsubr
          endchar
        </CharString>
        <CharString name="Itilde">
          -101 -87 callgsubr
          287 271 -102 callgsubr
        </CharString>
        <CharString name="J">
          -16 10 29 50 callgsubr
          -3 3 -1 vhcurveto
          -21 41 63 -12 85 hhcurveto
          116 171 29 236 hvcurveto
          387 vlineto
          -4 callgsubr
          -218 hlineto
          -67 -4 -37 -31 hvcurveto
          -489 vlineto
          -51 -20 -25 -41 vhcurveto
          -28 -18 9 -7 8 callgsubr
          endchar
        </CharString>
        <CharString name="Jcircumflex">
          -16 10 29 50 callgsubr
          -3 3 -1 vhcurveto
          -21 41 63 -12 85 hhcurveto
          116 171 29 236 hvcurveto
          387 vlineto
          -4 callgsubr
          -218 hlineto
          -67 -4 -37 -31 hvcurveto
          -489 vlineto
          -51 -20 -25 -41 vhcurveto
          -28 -18 9 -7 8 callgsubr
          413 682 -84 callsubr
          2 1 4 14 callsubr
          43 rlineto
          2 2 1 3 2 vvcurveto
          2 -23 callsubr
          vhcurveto
          -148 126 rlineto
          1 -2 -1 2 -4 hhcurveto
          -3 -2 -13 callgsubr
          hvcurveto
          -148 -126 34 callsubr
          -1 -2 -2 3 callsubr
          1 10 callsubr
          -43 -103 callgsubr
          109 77 rlineto
          endchar
        </CharString>
        <CharString name="K">
          61 -55 callgsubr
          endchar
        </CharString>
        <CharString name="Kcommaaccent">
          82 -55 callgsubr
          222 -755 -101 callsubr
        </CharString>
        <CharString name="L">
          23 45 68 rmoveto
          -35 callsubr
          61 vhcurveto
          418 hlineto
          22 10 20 callsubr
          -7 3 -12 -21 -120 -18 0 230 0 323 0 vhcurveto
          -92 callgsubr
          endchar
        </CharString>
        <CharString name="Lacute">
          23 45 68 rmoveto
          -35 callsubr
          61 vhcurveto
          418 hlineto
          22 10 20 callsubr
          -7 3 -12 -21 -120 -18 0 230 0 323 0 vhcurveto
          -92 callgsubr
          324 231 -107 callgsubr
        </CharString>
        <CharString name="Lcaron">
          33 45 68 rmoveto
          -35 callsubr
          61 vhcurveto
          418 hlineto
          22 10 20 callsubr
          -7 3 -12 -21 -120 -18 0 230 0 323 0 vhcurveto
          -92 callgsubr
          407 23 rmoveto
          -76 callsubr
        </CharString>
        <CharString name="Lcommaaccent">
          23 45 68 rmoveto
          -35 callsubr
          61 vhcurveto
          418 hlineto
          22 10 20 callsubr
          -7 3 -12 -21 -120 -18 0 230 0 323 0 vhcurveto
          -92 callgsubr
          187 -755 -101 callsubr
        </CharString>
        <CharString name="Ldot">
          46 45 68 rmoveto
          -35 callsubr
          61 vhcurveto
          418 hlineto
          22 10 20 callsubr
          -7 3 -12 -21 -120 -18 0 230 0 323 0 vhcurveto
          -92 callgsubr
          413 -383 -78 callgsubr
        </CharString>
        <CharString name="Lslash">
          32 55 68 rmoveto
          -35 callsubr
          61 vhcurveto
          418 hlineto
          22 10 20 callsubr
          -8 57 callgsubr
          -120 -18 0 vhcurveto
          237 vlineto
          105 48 60 callgsubr
          -4 2 -6 -3 rlinecurve
          -76 -35 rlineto
          239 vlineto
          -92 callgsubr
          -419 vlineto
          -76 -35 -6 -3 -1 -4 3 -6 rlinecurve
          20 -45 3 -8 5 -1 6 3 rlinecurve
          46 21 rlineto
          endchar
        </CharString>
        <CharString name="M">
          318 465 68 rmoveto
          -45 14 -23 54 vhcurveto
          226 hlineto
          60 10 27 41 hvcurveto
          571 vlineto
          35 -20 27 -50 vhcurveto
          -130 hlineto
          -62 -13 -28 -40 -21 hvcurveto
          -88 -169 -131 209 rlineto
          20 -13 -18 8 -25 hhcurveto
          -157 hlineto
          -42 -14 -27 -25 hvcurveto
          -621 vlineto
          -22 12 -6 12 vhcurveto
          54 hlineto
          24 3 13 19 -1 hvcurveto
          -2 40 -10 233 0 vvcurveto
          121 -208 rlineto
          -16 10 14 -15 22 hhcurveto
          24 12 14 18 10 hvcurveto
          115 211 rlineto
          endchar
        </CharString>
        <CharString name="N">
          -94 callsubr
          endchar
        </CharString>
        <CharString name="Nacute">
          -94 callsubr
          -117 163 -107 callgsubr
        </CharString>
        <CharString name="Ncaron">
          -94 callsubr
          -257 156 rmoveto
          -107 callsubr
        </CharString>
        <CharString name="Ncommaaccent">
          -94 callsubr
          -321 -823 -101 callsubr
        </CharString>
        <CharString name="Ntilde">
          -94 callsubr
          -164 224 -102 callgsubr
        </CharString>
        <CharString name="O">
          -98 callsubr
          endchar
        </CharString>
        <CharString name="OE">
          527 853 526 rmoveto
          124 vlineto
          0 153 -24 20 12 6 3 13 vhcurveto
          33 callsubr
          -2 12 -22 vhcurveto
          -339 hlineto
          -53 -17 -10 -50 hvcurveto
          -29 vlineto
          86 -64 -98 26 -94 hhcurveto
          -62 callsubr
          94 98 27 85 64 hvcurveto
          -36 vlineto
          -42 4 -15 49 vhcurveto
          371 hlineto
          22 5 20 callsubr
          -8 3 -13 -24 -164 -25 0 vhcurveto
          396 181 vlineto
          7 3 3 8 hvcurveto
          49 vlineto
          6 -2 4 -8 vhcurveto
          -635 -173 rmoveto
          -8 callgsubr
          52 54 -48 -166 -48 callsubr
          endchar
        </CharString>
        <CharString name="Oacute">
          -98 callsubr
          83 532 -107 callgsubr
        </CharString>
        <CharString name="Obreve">
          -98 callsubr
          -43 509 -102 callsubr
        </CharString>
        <CharString name="Ocircumflex">
          -98 callsubr
          66 417 -84 callsubr
          2 1 4 14 callsubr
          43 rlineto
          2 2 1 3 2 vvcurveto
          2 -23 callsubr
          vhcurveto
          -148 126 rlineto
          1 -2 -1 2 -4 hhcurveto
          -3 -2 -13 callgsubr
          hvcurveto
          -148 -126 34 callsubr
          -1 -2 -2 3 callsubr
          1 10 callsubr
          -43 -103 callgsubr
          109 77 rlineto
          endchar
        </CharString>
        <CharString name="Odieresis">
          -98 callsubr
          -203 497 -100 callgsubr
        </CharString>
        <CharString name="Ograve">
          -98 callsubr
          35 417 -84 callsubr
          3 1 4 2 hvcurveto
          33 48 rlineto
          2 2 1 3 -6 callsubr
          -35 callgsubr
          -173 131 rlineto
          2 -52 callgsubr
          -3 -3 hvcurveto
          -44 -63 34 callsubr
          -12 callgsubr
          -3 2 -2 -18 callsubr
          endchar
        </CharString>
        <CharString name="Ohungarumlaut">
          -98 callsubr
          -13 550 -88 callgsubr
          77 callsubr
          -2 -2 vvcurveto
          -2 2 55 callsubr
          35 -30 rlineto
          -2 3 -2 callgsubr
          282 132 -88 callgsubr
          -1 -3 -1 -2 -48 callgsubr
          36 -30 rlineto
          -2 2 -2 callgsubr
          endchar
        </CharString>
        <CharString name="Omacron">
          -98 callsubr
          87 446 rmoveto
          -61 callsubr
          78 -30 callsubr
          -7 vhcurveto
          -260 -46 callsubr
          -78 -53 callsubr
          6 vhcurveto
          endchar
        </CharString>
        <CharString name="Oslash">
          -72 callgsubr
          endchar
        </CharString>
        <CharString name="Oslashacute">
          -72 callgsubr
          99 531 -107 callgsubr
        </CharString>
        <CharString name="Otilde">
          -98 callsubr
          60 572 -102 callgsubr
        </CharString>
        <CharString name="P">
          76 6 callsubr
          183 vlineto
          109 17 94 54 160 vvcurveto
          162 -1 -139 46 -134 60 callsubr
          -147 30 callgsubr
        </CharString>
        <CharString name="Q">
          154 355 -19 rmoveto
          76 79 18 51 61 hvcurveto
          44 -80 rlineto
          -12 6 7 -3 12 callsubr
          31 17 rlineto
          75 callgsubr
          10 vvcurveto
          4 -2 4 -4 6 vhcurveto
          -68 98 rlineto
          36 56 22 79 109 vvcurveto
          -73 callgsubr
          vhcurveto
          148 226 rmoveto
          -8 -5 -1 -8 4 -8 24 -45 rcurveline
          -1 -6 -5 -1 -6 hhcurveto
          -53 -53 51 163 -40 callsubr
          -88 -16 -55 -22 -32 hvcurveto
          -25 35 -7 10 -7 1 -8 -5 rlinecurve
          endchar
        </CharString>
        <CharString name="R">
          -91 callgsubr
          endchar
        </CharString>
        <CharString name="Racute">
          -91 callgsubr
          -110 454 -107 callgsubr
        </CharString>
        <CharString name="Rcaron">
          -91 callgsubr
          -250 447 rmoveto
          -107 callsubr
        </CharString>
        <CharString name="Rcommaaccent">
          -91 callgsubr
          -282 -532 -101 callsubr
        </CharString>
        <CharString name="S">
          75 125 188 rmoveto
          -91 -9 -40 -32 -58 7 callgsubr
          27 callgsubr
          0 -2 26 callgsubr
          -1 4 -1 vhcurveto
          -6 26 97 -25 108 hhcurveto
          162 87 94 115 10 hvcurveto
          29 355 rlineto
          57 5 24 41 57 7 callsubr
          rlineto
          1 3 0 62 callgsubr
          1 -3 1 vhcurveto
          6 -26 -20 callsubr
          endchar
        </CharString>
        <CharString name="Sacute">
          -77 callsubr
          396 345 -107 callgsubr
        </CharString>
        <CharString name="Scaron">
          -77 callsubr
          256 338 rmoveto
          -107 callsubr
        </CharString>
        <CharString name="Scedilla">
          91 133 188 rmoveto
          -91 -9 -41 -32 -57 7 callgsubr
          -1 -5 rlineto
          -4 2 -1 4 -1 vhcurveto
          24 -6 87 -22 100 -3 rrcurveto
          -6 -32 -8 -34 38 callgsubr
          -20 16 -17 -11 callsubr
          31 93 31 callsubr
          5 26 133 16 71 86 9 104 rlinecurve
          29 355 rlineto
          57 5 23 41 58 7 callsubr
          1 6 rlineto
          3 -2 1 -4 1 vhcurveto
          6 -25 -20 callsubr
          endchar
        </CharString>
        <CharString name="Scircumflex">
          -77 callsubr
          366 230 -84 callsubr
          2 1 4 14 callsubr
          43 rlineto
          2 2 1 3 2 vvcurveto
          2 -23 callsubr
          vhcurveto
          -148 126 rlineto
          1 -2 -1 2 -4 hhcurveto
          -3 -2 -13 callgsubr
          hvcurveto
          -148 -126 34 callsubr
          -1 -2 -2 3 callsubr
          1 10 callsubr
          -43 -103 callgsubr
          109 77 rlineto
          endchar
        </CharString>
        <CharString name="T">
          -64 callsubr
          endchar
        </CharString>
        <CharString name="Tbar">
          134 163 630 rmoveto
          -135 -109 vlineto
          -8 75 callsubr
          -49 -9 callgsubr
          109 -356 hlineto
          -35 callsubr
          61 vhcurveto
          218 hlineto
          59 13 23 44 hvcurveto
          357 109 47 callgsubr
          -109 135 hlineto
          -58 callsubr
          endchar
        </CharString>
        <CharString name="Tcaron">
          -64 callsubr
          186 227 rmoveto
          -107 callsubr
        </CharString>
        <CharString name="Tcommaaccent">
          -64 callsubr
          120 -752 -101 callsubr
        </CharString>
        <CharString name="Thorn">
          76 45 68 rmoveto
          -35 callsubr
          52 vhcurveto
          233 hlineto
          55 11 21 44 hvcurveto
          67 vlineto
          109 16 94 55 160 vvcurveto
          137 -92 49 -111 16 vhcurveto
          69 vlineto
          45 -11 22 -60 vhcurveto
          65 callsubr
          -277 30 callgsubr
        </CharString>
        <CharString name="U">
          -101 callgsubr
          endchar
        </CharString>
        <CharString name="Uacute">
          -101 callgsubr
          -114 612 -107 callgsubr
        </CharString>
        <CharString name="Ubreve">
          -101 callgsubr
          -254 590 -102 callsubr
        </CharString>
        <CharString name="Ucircumflex">
          -101 callgsubr
          -144 497 -84 callsubr
          2 1 4 14 callsubr
          43 rlineto
          2 2 1 3 2 vvcurveto
          2 -23 callsubr
          vhcurveto
          -148 126 rlineto
          1 -2 -1 2 -4 hhcurveto
          -3 -2 -13 callgsubr
          hvcurveto
          -148 -126 34 callsubr
          -1 -2 -2 3 callsubr
          1 10 callsubr
          -43 -103 callgsubr
          109 77 rlineto
          endchar
        </CharString>
        <CharString name="Udieresis">
          -101 callgsubr
          -413 577 -100 callgsubr
        </CharString>
        <CharString name="Ugrave">
          -101 callgsubr
          -208 497 -84 callsubr
          3 1 4 2 hvcurveto
          33 48 rlineto
          2 2 1 3 -6 callsubr
          -35 callgsubr
          -173 131 rlineto
          2 -52 callgsubr
          -3 -3 hvcurveto
          -44 -63 34 callsubr
          -12 callgsubr
          -3 2 -2 -18 callsubr
          endchar
        </CharString>
        <CharString name="Uhungarumlaut">
          -101 callgsubr
          -224 631 -88 callgsubr
          77 callsubr
          -2 -2 vvcurveto
          -2 2 55 callsubr
          35 -30 rlineto
          -2 3 -2 callgsubr
          282 132 -88 callgsubr
          -1 -3 -1 -2 -48 callgsubr
          36 -30 rlineto
          -2 2 -2 callgsubr
          endchar
        </CharString>
        <CharString name="Umacron">
          -101 callgsubr
          -124 527 rmoveto
          -61 callsubr
          78 -30 callsubr
          -7 vhcurveto
          -260 -46 callsubr
          -78 -53 callsubr
          6 vhcurveto
          endchar
        </CharString>
        <CharString name="Uogonek">
          -99 callsubr
          -215 115 -49 124 -6 vhcurveto
          -55 -34 -34 -46 -42 0 callgsubr
          28 39 71 56 68 26 hvcurveto
          98 37 67 60 162 vvcurveto
          endchar
        </CharString>
        <CharString name="Uring">
          -101 callgsubr
          -380 614 -59 callsubr
        </CharString>
        <CharString name="Utilde">
          -101 callgsubr
          -151 652 -102 callgsubr
        </CharString>
        <CharString name="V">
          44 361 663 rmoveto
          23 -7 -11 15 -33 hhcurveto
          -277 -21 callsubr
          224 -8 callsubr
          68 hlineto
          28 10 16 30 10 hvcurveto
          204 618 rlineto
          4 11 1 8 5 vvcurveto
          10 -6 3 -10 vhcurveto
          -49 hlineto
          -24 -2 -17 -23 -6 hvcurveto
          -67 -257 rlineto
          endchar
        </CharString>
        <CharString name="W">
          -100 callsubr
          endchar
        </CharString>
        <CharString name="Wacute">
          -100 callsubr
          -106 508 -107 callgsubr
        </CharString>
        <CharString name="Wcircumflex">
          -100 callsubr
          -136 393 -84 callsubr
          2 1 4 14 callsubr
          43 rlineto
          2 2 1 3 2 vvcurveto
          2 -23 callsubr
          vhcurveto
          -148 126 rlineto
          1 -2 -1 2 -4 hhcurveto
          -3 -2 -13 callgsubr
          hvcurveto
          -148 -126 34 callsubr
          -1 -2 -2 3 callsubr
          1 10 callsubr
          -43 -103 callgsubr
          109 77 rlineto
          endchar
        </CharString>
        <CharString name="Wdieresis">
          -100 callsubr
          -405 473 -100 callgsubr
        </CharString>
        <CharString name="Wgrave">
          -100 callsubr
          -200 393 -84 callsubr
          3 1 4 2 hvcurveto
          33 48 rlineto
          2 2 1 3 -6 callsubr
          -35 callgsubr
          -173 131 rlineto
          2 -52 callgsubr
          -3 -3 hvcurveto
          -44 -63 34 callsubr
          -12 callgsubr
          -3 2 -2 -18 callsubr
          endchar
        </CharString>
        <CharString name="X">
          112 298 29 rmoveto
          -10 5 11 -19 33 hhcurveto
          277 hlineto
          15 19 11 23 7 -2 7 -4 9 hvcurveto
          -172 378 128 229 rlineto
          5 9 3 8 6 vvcurveto
          9 -7 5 -10 vhcurveto
          -56 hlineto
          -26 -9 -18 -22 -11 hvcurveto
          -63 -123 -61 134 rlineto
          10 -5 -11 57 callsubr
          -277 hlineto
          -16 -18 -11 -23 -6 2 -8 4 -9 hvcurveto
          151 -334 -152 -273 rlineto
          -5 -9 -3 -7 -6 vvcurveto
          -10 7 -5 10 vhcurveto
          56 hlineto
          26 9 19 21 11 hvcurveto
          87 168 rlineto
          endchar
        </CharString>
        <CharString name="Y">
          44 129 68 rmoveto
          -35 callsubr
          50 vhcurveto
          231 hlineto
          54 16 22 callsubr
          314 vlineto
          111 282 rlineto
          4 10 2 9 5 vvcurveto
          10 -7 3 -10 vhcurveto
          -45 -37 callsubr
          -3 -13 19 -33 hhcurveto
          -267 -21 callsubr
          124 -273 rlineto
          endchar
        </CharString>
        <CharString name="Yacute">
          44 129 68 rmoveto
          -35 callsubr
          50 vhcurveto
          231 hlineto
          54 16 22 callsubr
          314 vlineto
          111 282 rlineto
          4 10 2 9 5 vvcurveto
          10 -7 3 -10 vhcurveto
          -45 -37 callsubr
          -3 -13 19 -33 hhcurveto
          -267 -21 callsubr
          124 -273 rlineto
          360 493 -107 callgsubr
        </CharString>
        <CharString name="Ycircumflex">
          44 129 68 rmoveto
          -35 callsubr
          50 vhcurveto
          231 hlineto
          54 16 22 callsubr
          314 vlineto
          111 282 rlineto
          4 10 2 9 5 vvcurveto
          10 -7 3 -10 vhcurveto
          -45 -37 callsubr
          -3 -13 19 -33 hhcurveto
          -267 -21 callsubr
          124 -273 rlineto
          330 378 -84 callsubr
          2 1 4 14 callsubr
          43 rlineto
          2 2 1 3 2 vvcurveto
          2 -23 callsubr
          vhcurveto
          -148 126 rlineto
          1 -2 -1 2 -4 hhcurveto
          -3 -2 -13 callgsubr
          hvcurveto
          -148 -126 34 callsubr
          -1 -2 -2 3 callsubr
          1 10 callsubr
          -43 -103 callgsubr
          109 77 rlineto
          endchar
        </CharString>
        <CharString name="Ydieresis">
          44 129 68 rmoveto
          -35 callsubr
          50 vhcurveto
          231 hlineto
          54 16 22 callsubr
          314 vlineto
          111 282 rlineto
          4 10 2 9 5 vvcurveto
          10 -7 3 -10 vhcurveto
          -45 -37 callsubr
          -3 -13 19 -33 hhcurveto
          -267 -21 callsubr
          124 -273 rlineto
          61 458 -100 callgsubr
        </CharString>
        <CharString name="Ygrave">
          44 129 68 rmoveto
          -35 callsubr
          50 vhcurveto
          231 hlineto
          54 16 22 callsubr
          314 vlineto
          111 282 rlineto
          4 10 2 9 5 vvcurveto
          10 -7 3 -10 vhcurveto
          -45 -37 callsubr
          -3 -13 19 -33 hhcurveto
          -267 -21 callsubr
          124 -273 rlineto
          266 378 -84 callsubr
          3 1 4 2 hvcurveto
          33 48 rlineto
          2 2 1 3 -6 callsubr
          -35 callgsubr
          -173 131 rlineto
          2 -52 callgsubr
          -3 -3 hvcurveto
          -44 -63 34 callsubr
          -12 callgsubr
          -3 2 -2 -18 callsubr
          endchar
        </CharString>
        <CharString name="Z">
          -82 callsubr
          endchar
        </CharString>
        <CharString name="Zacute">
          -82 callsubr
          441 187 -107 callgsubr
        </CharString>
        <CharString name="Zcaron">
          -82 callsubr
          301 180 rmoveto
          -107 callsubr
        </CharString>
        <CharString name="Zdotaccent">
          -82 callsubr
          229 152 -78 callgsubr
        </CharString>
        <CharString name="a">
          -106 callsubr
          endchar
        </CharString>
        <CharString name="aacute">
          -106 callsubr
          241 415 -107 callgsubr
        </CharString>
        <CharString name="abreve">
          -106 callsubr
          101 393 -102 callsubr
        </CharString>
        <CharString name="acircumflex">
          -106 callsubr
          211 300 -84 callsubr
          2 1 4 14 callsubr
          43 rlineto
          2 2 1 3 2 vvcurveto
          2 -23 callsubr
          vhcurveto
          -148 126 rlineto
          1 -2 -1 2 -4 hhcurveto
          -3 -2 -13 callgsubr
          hvcurveto
          -148 -126 34 callsubr
          -1 -2 -2 3 callsubr
          1 10 callsubr
          -43 -103 callgsubr
          109 77 rlineto
          endchar
        </CharString>
        <CharString name="acute">
          340 684 -107 callgsubr
        </CharString>
        <CharString name="adieresis">
          -106 callsubr
          -58 380 -100 callgsubr
        </CharString>
        <CharString name="ae">
          -78 callsubr
          endchar
        </CharString>
        <CharString name="aeacute">
          -78 callsubr
          399 256 -107 callgsubr
        </CharString>
        <CharString name="agrave">
          -106 callsubr
          147 300 -84 callsubr
          3 1 4 2 hvcurveto
          33 48 rlineto
          2 2 1 3 -6 callsubr
          -35 callgsubr
          -173 131 rlineto
          2 -52 callgsubr
          -3 -3 hvcurveto
          -44 -63 34 callsubr
          -12 callgsubr
          -3 2 -2 -18 callsubr
          endchar
        </CharString>
        <CharString name="amacron">
          -106 callsubr
          231 330 rmoveto
          -61 callsubr
          78 -30 callsubr
          -7 vhcurveto
          -260 -46 callsubr
          -78 -53 callsubr
          6 vhcurveto
          endchar
        </CharString>
        <CharString name="ampersand">
          167 212 285 rmoveto
          -75 -10 -60 -46 -78 vvcurveto
          -107 115 -51 157 171 103 61 194 14 vhcurveto
          45 hlineto
          8 3 4 7 hvcurveto
          46 vlineto
          7 -5 4 -6 vhcurveto
          -287 hlineto
          -16 -5 10 10 hvcurveto
          274 vlineto
          12 3 7 20 95 82 -63 -26 30 vhcurveto
          -1 2 -1 17 callsubr
          1 2 2 vhcurveto
          30 49 21 callsubr
          62 callgsubr
          2 -2 1 vhcurveto
          78 -91 -96 26 -111 hhcurveto
          -202 -111 -102 -120 -117 83 -62 100 -19 hvcurveto
          160 -59 rmoveto
          12 3 10 19 vhcurveto
          165 hlineto
          -118 -9 -46 -65 -99 hhcurveto
          -10 -23 -1 24 hvcurveto
          endchar
        </CharString>
        <CharString name="aogonek">
          74 585 66 rmoveto
          -104 callsubr
          163 hlineto
          -58 -32 -34 -47 -42 vvcurveto
          -83 74 -26 -41 callsubr
          -15 -18 -16 -63 hhcurveto
          -56 -18 20 27 32 54 53 65 21 hvcurveto
          51 16 7 12 41 vvcurveto
          -360 203 -50 callsubr
          endchar
        </CharString>
        <CharString name="approxequal">
          -56 373 440 rmoveto
          1 -3 -2 0 -2 hhcurveto
          -6 -1 -5 37 callsubr
          -82 -21 hvcurveto
          -1 -1 -3 -3 vvcurveto
          -4 2 -5 8 -4 vhcurveto
          57 -24 rlineto
          -2 3 4 -1 2 hhcurveto
          8 2 6 3 1 hvcurveto
          27 8 12 20 22 25 63 -63 53 hhcurveto
          49 46 32 84 21 hvcurveto
          1 1 0 3 72 callgsubr
          -61 -189 rmoveto
          1 -3 5 callgsubr
          hhcurveto
          -6 -1 -6 37 callsubr
          -81 -21 hvcurveto
          -2 -1 -3 -3 vvcurveto
          -4 2 -5 8 -4 vhcurveto
          57 -24 rlineto
          -2 3 4 -1 2 hhcurveto
          8 2 6 3 1 hvcurveto
          27 8 12 20 22 25 63 -63 53 hhcurveto
          49 46 32 84 21 hvcurveto
          1 2 0 2 72 callgsubr
          endchar
        </CharString>
        <CharString name="aring">
          -106 callsubr
          -25 417 -59 callsubr
        </CharString>
        <CharString name="asciicircum">
          -56 379 435 rmoveto
          -3 3 2 -3 3 hhcurveto
          33 callgsubr
          2 hvcurveto
          62 52 rlineto
          3 3 3 2 3 vvcurveto
          2 -1 2 -1 2 vhcurveto
          -159 196 rlineto
          6 -5 -4 2 -7 hhcurveto
          -70 hlineto
          -7 -4 -2 -6 -5 hvcurveto
          -159 -196 rlineto
          -1 -13 callgsubr
          -2 vvcurveto
          -3 3 68 callsubr
          62 -52 rlineto
          -2 33 callgsubr
          hhcurveto
          3 18 callsubr
          2 hvcurveto
          129 165 rlineto
          endchar
        </CharString>
        <CharString name="asciitilde">
          -56 378 337 rmoveto
          -12 6 -2 -9 -1 -3 rrcurveto
          -28 -9 -14 -26 -25 -27 -53 68 -59 hhcurveto
          -54 -52 -37 -82 -23 hvcurveto
          -1 -5 -4 -9 15 -6 61 -30 rcurveline
          15 -7 3 9 2 5 rrcurveto
          26 9 13 25 25 27 53 -67 59 hhcurveto
          54 49 37 83 25 hvcurveto
          3 8 -1 6 -11 5 rrcurveto
          endchar
        </CharString>
        <CharString name="asterisk">
          -182 344 566 rmoveto
          7 3 3 4 6 vvcurveto
          2 0 -43 callgsubr
          vhcurveto
          -21 45 rlineto
          7 -4 39 callsubr
          -3 -2 0 -2 -3 hvcurveto
          -88 -49 6 95 rlineto
          10 1 -5 6 -11 hhcurveto
          -50 hlineto
          -11 -6 -6 -10 hvcurveto
          6 -95 -88 49 rlineto
          2 -3 -2 0 -3 hhcurveto
          -6 -4 -3 -7 -4 hvcurveto
          -21 -45 rlineto
          -1 -3 0 -2 -2 vvcurveto
          -6 3 -4 7 -3 vhcurveto
          96 -38 -65 -81 rlineto
          -2 -3 -1 -4 -1 callgsubr
          -5 4 -4 5 -4 41 -28 rcurveline
          -2 3 3 -2 3 hhcurveto
          5 1 4 2 3 5 59 97 rcurveline
          59 -97 3 -5 4 -2 5 -1 rlinecurve
          3 18 callsubr
          3 hvcurveto
          41 28 rlineto
          5 4 3 4 5 vvcurveto
          3 -1 4 -3 3 vhcurveto
          -65 81 rlineto
          endchar
        </CharString>
        <CharString name="at">
          292 568 139 rmoveto
          126 105 102 140 211 -146 131 -212 -211 -181 -161 -221 -212 171 -156 211 53 45 6 18 45 hvcurveto
          4 2 10 2 -5 13 -18 41 rcurveline
          -7 14 -12 -7 -6 -1 rrcurveto
          -12 -34 -36 -4 -39 hhcurveto
          -171 -139 124 172 181 150 129 170 182 104 -104 -166 -81 -41 -67 -66 -18 hvcurveto
          163 vlineto
          151 -85 25 -109 -72 -64 -30 -25 -31 vhcurveto
          -3 -2 -4 -3 -5 vvcurveto
          76 callsubr
          1 -3 vhcurveto
          12 -25 rlineto
          -5 2 2 -1 5 11 25 28 42 hhcurveto
          15 30 -4 -43 hvcurveto
          -14 vlineto
          -70 -6 -96 -35 -99 vvcurveto
          -107 84 -31 90 vhcurveto
          -8 216 rmoveto
          -153 vlineto
          -65 -32 28 46 46 32 33 65 hvcurveto
          endchar
        </CharString>
        <CharString name="atilde">
          -106 callsubr
          204 455 -102 callgsubr
        </CharString>
        <CharString name="b">
          88 318 -10 rmoveto
          147 153 53 205 164 -98 67 -115 21 hvcurveto
          231 vlineto
          47 -15 23 -56 -19 callsubr
          -96 callsubr
          -486 vlineto
          -164 102 -93 171 vhcurveto
          87 447 rmoveto
          101 -12 43 -77 -100 vvcurveto
          -100 -43 -76 -101 -12 vhcurveto
          377 vlineto
          endchar
        </CharString>
        <CharString name="backslash">
          -242 214 -1 rmoveto
          -7 2 6 -11 10 hhcurveto
          2 3 0 1 2 hvcurveto
          32 7 rlineto
          9 2 10 4 11 vvcurveto
          3 -1 4 -1 4 vhcurveto
          -188 689 rlineto
          16 -4 -6 2 -8 69 callsubr
          0 -2 -4 hvcurveto
          -30 -8 rlineto
          -11 -4 -6 -3 -9 vvcurveto
          -3 1 -3 1 -4 vhcurveto
          endchar
        </CharString>
        <CharString name="bar">
          -306 84 -227 rmoveto
          -22 13 -1 11 vhcurveto
          38 -14 callsubr
          954 16 callsubr
          endchar
        </CharString>
        <CharString name="braceleft">
          -90 356 169 rmoveto
          77 -34 31 -37 22 vhcurveto
          37 23 34 31 77 vvcurveto
          217 vlineto
          41 22 22 38 vhcurveto
          20 hlineto
          -69 callsubr
          -140 hlineto
          -125 -61 -72 -119 hvcurveto
          -174 vlineto
          -65 -4 -15 -76 -7 -3 -3 -8 vhcurveto
          -50 vlineto
          -6 2 -4 8 76 4 -15 -65 vhcurveto
          -174 vlineto
          -119 61 -72 125 vhcurveto
          140 hlineto
          7 3 3 7 hvcurveto
          49 vlineto
          8 -4 3 -6 vhcurveto
          -20 hlineto
          -38 -22 22 41 hvcurveto
          endchar
        </CharString>
        <CharString name="braceright">
          -90 110 -48 rmoveto
          -41 -22 -22 -38 vhcurveto
          -20 40 callgsubr
          -3 -8 hvcurveto
          -49 vlineto
          -7 2 -3 8 vhcurveto
          139 hlineto
          125 62 72 119 hvcurveto
          174 vlineto
          65 4 15 76 7 3 4 6 vhcurveto
          50 vlineto
          8 -4 3 -6 -76 -4 15 65 vhcurveto
          174 vlineto
          119 -62 72 -125 vhcurveto
          -139 hlineto
          -8 -2 -4 -6 hvcurveto
          -49 vlineto
          -8 3 -3 7 vhcurveto
          20 hlineto
          38 22 -22 -41 hvcurveto
          -217 vlineto
          -77 34 -31 37 -23 vhcurveto
          -37 -22 -34 -31 -77 vvcurveto
          endchar
        </CharString>
        <CharString name="bracketleft">
          -111 415 -181 rmoveto
          -61 callsubr
          48 vlineto
          7 -29 callgsubr
          -80 821 80 hlineto
          -69 callsubr
          -321 32 callsubr
          -915 -9 callsubr
          endchar
        </CharString>
        <CharString name="bracketright">
          -111 352 -181 rmoveto
          12 12 1 22 hvcurveto
          915 -19 callgsubr
          -321 40 callgsubr
          -4 -6 hvcurveto
          -49 -53 callsubr
          6 vhcurveto
          80 -821 -80 hlineto
          74 callgsubr
          -48 -53 callsubr
          6 vhcurveto
          endchar
        </CharString>
        <CharString name="breve">
          200 662 -102 callsubr
        </CharString>
        <CharString name="brokenbar">
          -306 84 394 rmoveto
          -22 13 -1 11 vhcurveto
          38 hlineto
          17 3 11 12 hvcurveto
          333 16 callsubr
          -954 vmoveto
          -22 13 -1 11 vhcurveto
          38 -14 callsubr
          333 16 callsubr
          endchar
        </CharString>
        <CharString name="bullet">
          -217 37 349 rmoveto
          -73 60 -60 73 73 60 60 73 73 -60 60 -73 -73 -60 -60 -73 vhcurveto
          endchar
        </CharString>
        <CharString name="c">
          -96 callgsubr
          endchar
        </CharString>
        <CharString name="cacute">
          -96 callgsubr
          77 437 -107 callgsubr
        </CharString>
        <CharString name="caron">
          200 677 rmoveto
          -107 callsubr
        </CharString>
        <CharString name="ccaron">
          -96 callgsubr
          -63 430 rmoveto
          -107 callsubr
        </CharString>
        <CharString name="ccedilla">
          -85 callgsubr
          -180 125 -72 133 -13 hvcurveto
          -7 -36 -9 -40 -5 -13 callsubr
          7 32 108 5 75 37 40 28 rlinecurve
          -67 callgsubr
          endchar
        </CharString>
        <CharString name="ccircumflex">
          -96 callgsubr
          47 322 -84 callsubr
          2 1 4 14 callsubr
          43 rlineto
          2 2 1 3 2 vvcurveto
          2 -23 callsubr
          vhcurveto
          -148 126 rlineto
          1 -2 -1 2 -4 hhcurveto
          -3 -2 -13 callgsubr
          hvcurveto
          -148 -126 34 callsubr
          -1 -2 -2 3 callsubr
          1 10 callsubr
          -43 -103 callgsubr
          109 77 rlineto
          endchar
        </CharString>
        <CharString name="cdotaccent">
          -96 callgsubr
          -135 402 -78 callgsubr
        </CharString>
        <CharString name="cedilla">
          227 5 rmoveto
          -66 hlineto
          -8 -39 -13 -59 -6 -13 callsubr
          endchar
        </CharString>
        <CharString name="cent">
          -53 35 250 rmoveto
          -157 98 -70 101 -18 vhcurveto
          -106 -9 callsubr
          35 -14 callsubr
          101 vlineto
          73 5 49 29 34 26 rrcurveto
          3 2 6 3 6 vvcurveto
          2 -1 -35 callgsubr
          -16 26 rlineto
          5 -3 -2 0 -3 -5 -21 -17 -33 hhcurveto
          -41 -37 34 124 124 37 35 41 hvcurveto
          33 15 -14 7 hhcurveto
          2 2 0 5 3 hvcurveto
          16 25 rlineto
          2 3 56 callsubr
          vvcurveto
          5 -6 3 -3 3 vhcurveto
          -33 24 -55 26 -63 5 rrcurveto
          98 vlineto
          14 -2 9 -18 vhcurveto
          -36 13 callsubr
          hvcurveto
          -102 vlineto
          -101 -18 -98 -70 -157 vvcurveto
          endchar
        </CharString>
        <CharString name="circumflex">
          310 569 -84 callsubr
          2 1 4 14 callsubr
          43 rlineto
          2 2 1 3 2 vvcurveto
          2 -23 callsubr
          vhcurveto
          -148 126 rlineto
          1 -2 -1 2 -4 hhcurveto
          -3 -2 -13 callgsubr
          hvcurveto
          -148 -126 34 callsubr
          -1 -2 -2 3 callsubr
          1 10 callsubr
          -43 -103 callgsubr
          109 77 rlineto
          endchar
        </CharString>
        <CharString name="colon">
          -200 65 28 callsubr
          294 vmoveto
          29 callgsubr
        </CharString>
        <CharString name="comma">
          -230 50 103 rmoveto
          -57 42 -46 54 -8 vhcurveto
          -45 -15 callsubr
        </CharString>
        <CharString name="commaaccent">
          138 -122 -101 callsubr
        </CharString>
        <CharString name="copyright">
          286 50 354 rmoveto
          -205 166 -166 205 205 166 166 205 205 -166 166 -205 -205 -166 -166 -205 vhcurveto
          70 hmoveto
          166 135 135 166 166 135 73 callgsubr
          73 callgsubr
          135 166 vhcurveto
          327 -4 rmoveto
          102 45 31 41 17 18 -9 -6 10 vhcurveto
          5 -3 4 -2 5 8 12 20 rcurveline
          4 8 -6 4 -4 3 rrcurveto
          23 -31 -64 26 -74 hhcurveto
          -103 -109 -51 -154 -152 109 -52 103 85 58 31 22 31 hvcurveto
          4 3 7 5 -5 8 -12 20 rcurveline
          -5 8 -3 -2 -6 -4 rrcurveto
          -6 -10 -19 -12 -21 hhcurveto
          -41 -45 31 100 hvcurveto
          endchar
        </CharString>
        <CharString name="currency">
          -80 43 155 rmoveto
          -6 -7 -3 -5 -5 vvcurveto
          -7 5 -5 5 -4 vhcurveto
          19 -19 rlineto
          -5 5 4 -2 55 callgsubr
          4 4 5 hvcurveto
          61 61 rlineto
          -15 24 29 -9 31 hhcurveto
          31 28 9 15 25 hvcurveto
          60 -60 rlineto
          -7 7 5 -2 5 hhcurveto
          6 6 5 4 5 hvcurveto
          19 20 rlineto
          4 4 2 5 4 vvcurveto
          7 -4 5 -4 5 vhcurveto
          -61 60 rlineto
          15 24 9 29 31 vvcurveto
          31 -9 29 -15 24 vhcurveto
          61 61 rlineto
          5 5 3 5 6 vvcurveto
          4 -2 5 -5 6 vhcurveto
          -19 19 rlineto
          5 -5 -5 4 -6 hhcurveto
          -4 -6 -3 -6 -7 hvcurveto
          -60 -61 rlineto
          16 -25 -28 9 -31 hhcurveto
          -31 -28 -10 -15 -25 hvcurveto
          -61 61 rlineto
          6 -5 -5 62 callsubr
          -4 -5 -2 -5 -6 hvcurveto
          -19 -19 rlineto
          -4 -5 -5 -5 -7 vvcurveto
          -4 3 -5 6 -7 vhcurveto
          61 -61 rlineto
          -15 -25 -9 -28 -31 vvcurveto
          -31 9 -29 15 -24 vhcurveto
          48 84 rmoveto
          48 38 38 48 48 38 -38 -48 -48 -38 -38 -48 -48 -38 38 48 vhcurveto
          endchar
        </CharString>
        <CharString name="d">
          88 -3 callgsubr
          -231 vlineto
          -22 callsubr
          -504 184 6 callgsubr
          endchar
        </CharString>
        <CharString name="dagger">
          -15 callgsubr
          -486 -9 callsubr
          37 -14 callsubr
          486 15 callsubr
        </CharString>
        <CharString name="daggerdbl">
          -15 callgsubr
          -236 -17 callgsubr
          -190 -9 callsubr
          37 -14 callsubr
          191 vlineto
          126 -15 -7 callsubr
          236 15 callsubr
        </CharString>
        <CharString name="dcaron">
          225 -3 callgsubr
          -231 vlineto
          -22 callsubr
          -504 184 6 callgsubr
          549 404 rmoveto
          -76 callsubr
        </CharString>
        <CharString name="dcroat">
          88 -3 callgsubr
          -83 -96 vlineto
          -8 -31 callsubr
          -50 vlineto
          -7 4 -3 7 vhcurveto
          96 -78 hlineto
          -22 callsubr
          510 45 vlineto
          6 4 3 7 hvcurveto
          50 -30 callsubr
          -7 vhcurveto
          -45 hlineto
          -504 -396 6 callgsubr
          endchar
        </CharString>
        <CharString name="degree">
          -268 24 595 rmoveto
          -66 54 -53 66 66 53 53 66 66 -53 54 -66 -66 -54 -54 -66 vhcurveto
          58 1 rmoveto
          34 28 28 34 35 27 -28 -34 -35 -27 -27 -35 -34 -28 27 35 vhcurveto
          endchar
        </CharString>
        <CharString name="dieresis">
          41 649 -100 callgsubr
        </CharString>
        <CharString name="divide">
          -2 callsubr
          115 -96 rmoveto
          -34 27 -27 34 34 28 27 34 34 -28 28 -34 -34 -27 -28 -34 vhcurveto
          295 vmoveto
          -33 27 -27 34 34 28 27 33 35 -28 27 -34 -34 -27 -27 -35 vhcurveto
          endchar
        </CharString>
        <CharString name="dollar">
          -95 271 727 rmoveto
          36 callsubr
          -35 13 callsubr
          hvcurveto
          -109 vlineto
          -85 -31 -68 -62 -100 -122 71 3 -109 vvcurveto
          -55 -27 -29 -36 vhcurveto
          -4 -5 1 -3 37 callgsubr
          hvcurveto
          -41 vlineto
          -7 -43 callgsubr
          -1 vhcurveto
          -2 12 33 -4 40 hhcurveto
          26 23 2 3 23 hvcurveto
          -110 -9 callsubr
          35 -14 callsubr
          131 vlineto
          101 40 49 83 87 117 -77 59 52 vvcurveto
          49 19 17 41 2 vhcurveto
          3 5 -1 8 hvcurveto
          40 -12 callsubr
          2 -6 vhcurveto
          1 -12 -22 2 -25 hhcurveto
          -24 -25 -2 -4 -24 hvcurveto
          endchar
        </CharString>
        <CharString name="dotaccent">
          128 649 -78 callgsubr
        </CharString>
        <CharString name="dotlessi">
          -106 -88 callsubr
          endchar
        </CharString>
        <CharString name="dotlessj">
          -106 -66 -164 -71 callsubr
          endchar
        </CharString>
        <CharString name="e">
          -105 callgsubr
          endchar
        </CharString>
        <CharString name="eacute">
          -105 callgsubr
          -86 418 -107 callgsubr
        </CharString>
        <CharString name="ebreve">
          -105 callgsubr
          -226 396 -102 callsubr
        </CharString>
        <CharString name="ecaron">
          -105 callgsubr
          -226 411 rmoveto
          -107 callsubr
        </CharString>
        <CharString name="ecircumflex">
          -105 callgsubr
          -116 303 -84 callsubr
          2 1 4 14 callsubr
          43 rlineto
          2 2 1 3 2 vvcurveto
          2 -23 callsubr
          vhcurveto
          -148 126 rlineto
          1 -2 -1 2 -4 hhcurveto
          -3 -2 -13 callgsubr
          hvcurveto
          -148 -126 34 callsubr
          -1 -2 -2 3 callsubr
          1 10 callsubr
          -43 -103 callgsubr
          109 77 rlineto
          endchar
        </CharString>
        <CharString name="edieresis">
          -105 callgsubr
          -385 383 -100 callgsubr
        </CharString>
        <CharString name="edotaccent">
          -105 callgsubr
          -298 383 -78 callgsubr
        </CharString>
        <CharString name="egrave">
          -105 callgsubr
          -180 303 -84 callsubr
          3 1 4 2 hvcurveto
          33 48 rlineto
          2 2 1 3 -6 callsubr
          -35 callgsubr
          -173 131 rlineto
          2 -52 callgsubr
          -3 -3 hvcurveto
          -44 -63 34 callsubr
          -12 callgsubr
          -3 2 -2 -18 callsubr
          endchar
        </CharString>
        <CharString name="eight">
          21 267 -18 rmoveto
          191 89 102 116 80 -39 53 -69 55 hvcurveto
          54 37 29 50 55 vvcurveto
          134 -115 51 -119 -141 -90 -75 -124 -68 51 -61 45 -38 vhcurveto
          -71 -34 -52 -51 -92 vvcurveto
          -137 121 -53 116 vhcurveto
          33 163 rmoveto
          -41 -25 -49 -63 -55 -58 43 78 58 35 49 63 20 vhcurveto
          69 -53 34 -41 -64 vvcurveto
          -8 429 rmoveto
          51 30 21 37 49 45 -49 -67 -41 -22 -38 -33 -21 vhcurveto
          -54 34 -52 55 55 vvcurveto
          endchar
        </CharString>
        <CharString name="ellipsis">
          422 50 28 callsubr
          326 hmoveto
          -66 callsubr
          326 hmoveto
          29 callgsubr
        </CharString>
        <CharString name="emacron">
          -105 callgsubr
          -96 333 rmoveto
          -61 callsubr
          78 -30 callsubr
          -7 vhcurveto
          -260 -46 callsubr
          -78 -53 callsubr
          6 vhcurveto
          endchar
        </CharString>
        <CharString name="emdash">
          444 990 40 callsubr
          -980 41 callgsubr
        </CharString>
        <CharString name="endash">
          -56 441 40 callsubr
          -382 41 callgsubr
        </CharString>
        <CharString name="eng">
          52 296 -174 rmoveto
          -12 7 55 callsubr
          -16 23 33 -5 41 hhcurveto
          71 89 36 157 hvcurveto
          402 vlineto
          83 -37 44 -62 -35 -32 70 callgsubr
          vhcurveto
          15 -8 -23 -36 callsubr
          -364 vlineto
          -81 callsubr
          210 hlineto
          62 13 22 callsubr
          358 vlineto
          9 9 17 10 15 hhcurveto
          29 13 -20 -37 hvcurveto
          -422 vlineto
          -64 -29 -45 -72 vhcurveto
          -49 -21 15 -11 hhcurveto
          -5 -5 -1 -9 hvcurveto
          endchar
        </CharString>
        <CharString name="eogonek">
          -95 callsubr
          13 14 0 1 12 vhcurveto
          -19 -23 -10 -24 -23 -50 callgsubr
          -14 -19 -16 -62 hhcurveto
          -57 -18 20 27 27 26 37 45 21 hvcurveto
          35 16 28 16 18 14 rrcurveto
          -94 callgsubr
          endchar
        </CharString>
        <CharString name="equal">
          -56 417 301 rmoveto
          -61 callsubr
          83 -30 callsubr
          -7 vhcurveto
          -334 -46 callsubr
          -83 -53 callsubr
          6 vhcurveto
          334 -196 rmoveto
          -61 callsubr
          84 -30 callsubr
          -7 vhcurveto
          -334 -46 callsubr
          -84 -53 callsubr
          6 vhcurveto
          endchar
        </CharString>
        <CharString name="eth">
          98 273 546 rmoveto
          -4 3 5 -3 5 hhcurveto
          3 3 69 callgsubr
          64 52 33 -30 34 -38 29 -44 rlinecurve
          13 -43 -44 4 -42 36 callgsubr
          -65 -194 -195 154 -63 147 137 164 43 219 169 -82 142 -112 99 hvcurveto
          55 45 rlineto
          3 9 callsubr
          2 vvcurveto
          4 -2 3 -2 3 vhcurveto
          -28 33 rlineto
          3 -3 -2 2 -4 hhcurveto
          -3 -4 -2 -3 -4 hvcurveto
          -64 -51 -30 21 -33 19 -32 16 rlinecurve
          1 -2 -3 1 -4 hhcurveto
          -3 -3 -2 -6 -4 hvcurveto
          -32 -47 rlineto
          -3 -4 0 22 callgsubr
          -5 4 -2 3 -1 vhcurveto
          18 -11 24 -15 27 -20 -53 -42 rcurveline
          -4 -4 -2 -4 -5 3 callsubr
          2 -2 vhcurveto
          228 -478 rmoveto
          -43 -39 17 124 125 51 17 31 40 42 -27 -111 -117 -41 -28 -41 hvcurveto
          endchar
        </CharString>
        <CharString name="exclam">
          -111 110 28 callsubr
          122 154 rmoveto
          46 -14 37 28 4 hvcurveto
          12 77 105 67 88 vvcurveto
          -10 callgsubr
          -88 105 -67 12 -77 vhcurveto
          -28 4 -14 -37 46 hhcurveto
          endchar
        </CharString>
        <CharString name="exclamdown">
          -111 335 599 rmoveto
          -39 callgsubr
          -32 callgsubr
          vhcurveto
          -122 -154 rmoveto
          -46 14 -37 -28 -4 hvcurveto
          -12 -77 -105 -67 -88 vvcurveto
          -90 73 -73 89 90 73 73 90 88 -105 67 -12 77 vhcurveto
          28 -4 14 37 -46 hhcurveto
          endchar
        </CharString>
        <CharString name="f">
          -9 524 203 rmoveto
          1 callgsubr
          -98 -43 callsubr
          endchar
        </CharString>
        <CharString name="ff">
          473 -70 callgsubr
          endchar
        </CharString>
        <CharString name="ffi">
          874 -70 callgsubr
          117 -135 -89 callsubr
          18 277 -25 callgsubr
          endchar
        </CharString>
        <CharString name="ffl">
          874 1025 64 callgsubr
          60 -24 callgsubr
          -60 -19 callsubr
          hlineto
          -41 -20 -10 -20 -9 hvcurveto
          20 -45 -86 20 -69 hhcurveto
          -129 -154 -80 callsubr
          78 vlineto
          -4 callsubr
          40 31 58 8 6 -1 -1 5 vhcurveto
          endchar
        </CharString>
        <CharString name="fi">
          392 504 203 rmoveto
          2 callsubr
          39 -30 callsubr
          -8 vhcurveto
          -78 -43 callsubr
          117 -135 rmoveto
          44 callsubr
          214 hlineto
          60 -54 callsubr
          -60 -19 callsubr
          hlineto
          -62 -14 -23 -45 hvcurveto
          19 59 callgsubr
          -89 73 -73 90 88 74 73 89 90 -74 73 -88 -90 -73 -73 -90 vhcurveto
          endchar
        </CharString>
        <CharString name="five">
          -62 86 141 rmoveto
          8 3 4 3 4 hvcurveto
          12 13 8 1 9 hhcurveto
          37 24 -49 -80 -88 -51 -57 -50 hvcurveto
          -35 -21 17 -9 hhcurveto
          -6 -2 -4 -6 -2 hvcurveto
          -13 -43 -3 -10 6 -2 2 -1 rlinecurve
          -24 57 68 -9 59 hhcurveto
          166 121 78 153 137 -104 80 -135 -61 -38 -14 -9 -25 hvcurveto
          17 95 rlineto
          266 hlineto
          18 14 10 20 hvcurveto
          120 vlineto
          17 -10 8 -22 vhcurveto
          -280 hlineto
          -24 -2 -12 -9 -1 hvcurveto
          -51 -328 rlineto
          -5 -1 2 -5 7 hhcurveto
          endchar
        </CharString>
        <CharString name="fl">
          392 543 68 rmoveto
          44 callsubr
          213 hlineto
          59 -24 callgsubr
          -59 -19 callsubr
          hlineto
          -42 -19 -10 -20 -9 hvcurveto
          20 -46 -85 20 -69 hhcurveto
          -129 -154 43 callsubr
          -69 callgsubr
          78 vlineto
          2 callsubr
          39 -30 callsubr
          -8 vhcurveto
          -78 35 callsubr
          40 31 58 8 7 -1 -1 4 vhcurveto
          endchar
        </CharString>
        <CharString name="florin">
          69 484 343 rmoveto
          78 hlineto
          -14 callgsubr
          -78 63 hlineto
          112 35 25 43 vhcurveto
          20 16 -6 2 hhcurveto
          2 3 1 6 hvcurveto
          40 vlineto
          11 -6 2 -4 2 vhcurveto
          22 -43 -92 20 -73 hhcurveto
          -124 -122 26 callsubr
          -46 -25 callsubr
          51 -309 hlineto
          -112 -35 -25 -44 vhcurveto
          -19 -16 6 -2 hhcurveto
          77 callsubr
          -6 hvcurveto
          -40 vlineto
          -11 6 -2 4 -2 vhcurveto
          -22 43 92 -20 73 hhcurveto
          124 122 41 211 hvcurveto
          endchar
        </CharString>
        <CharString name="four">
          5 484 70 rmoveto
          139 vlineto
          15 -5 7 -17 vhcurveto
          -53 hlineto
          -17 -3 -10 -12 hvcurveto
          -139 -78 vlineto
          80 349 rlineto
          3 10 2 12 12 vvcurveto
          25 -12 22 -51 vhcurveto
          -138 hlineto
          -62 -13 -23 -45 -11 hvcurveto
          -90 -364 rlineto
          -2 -9 -2 -9 -8 vvcurveto
          -28 19 -14 48 vhcurveto
          307 -157 hlineto
          3 callgsubr
          51 hlineto
          19 5 8 15 hvcurveto
          157 67 vlineto
          -69 callsubr
          endchar
        </CharString>
        <CharString name="fraction">
          -38 callgsubr
        </CharString>
        <CharString name="g">
          -106 callgsubr
          endchar
        </CharString>
        <CharString name="gbreve">
          -106 callgsubr
          -162 325 -102 callsubr
        </CharString>
        <CharString name="gcircumflex">
          -106 callgsubr
          -52 232 -84 callsubr
          2 1 4 14 callsubr
          43 rlineto
          2 2 1 3 2 vvcurveto
          2 -23 callsubr
          vhcurveto
          -148 126 rlineto
          1 -2 -1 2 -4 hhcurveto
          -3 -2 -13 callgsubr
          hvcurveto
          -148 -126 34 callsubr
          -1 -2 -2 3 callsubr
          1 10 callsubr
          -43 -103 callgsubr
          109 77 rlineto
          endchar
        </CharString>
        <CharString name="gcommaaccent">
          -106 callgsubr
          -93 297 -22 callgsubr
        </CharString>
        <CharString name="gdotaccent">
          -106 callgsubr
          -234 312 -78 callgsubr
        </CharString>
        <CharString name="germandbls">
          133 434 10 rmoveto
          -10 7 0 3 vhcurveto
          104 2 83 35 100 vvcurveto
          60 -39 28 -36 16 vhcurveto
          61 37 72 61 172 vvcurveto
          254 -159 45 -155 -132 -192 -41 -184 vhcurveto
          -517 vlineto
          -81 callsubr
          214 hlineto
          55 16 25 41 hvcurveto
          601 vlineto
          50 30 16 39 90 50 -100 -122 -137 -60 -105 -117 -6 vhcurveto
          -3 -6 1 -10 hvcurveto
          -42 vlineto
          -10 7 1 4 68 49 -3 -67 -53 -50 -14 -69 -1 vhcurveto
          -3 -6 0 -8 hvcurveto
          endchar
        </CharString>
        <CharString name="grave">
          246 569 -84 callsubr
          3 1 4 2 hvcurveto
          33 48 rlineto
          2 2 1 3 -6 callsubr
          -35 callgsubr
          -173 131 rlineto
          2 -52 callgsubr
          -3 -3 hvcurveto
          -44 -63 34 callsubr
          -12 callgsubr
          -3 2 -2 -18 callsubr
          endchar
        </CharString>
        <CharString name="greater">
          -56 76 126 rmoveto
          -21 callgsubr
          -2 46 callsubr
          2 -2 4 hhcurveto
          1 2 0 2 2 hvcurveto
          299 183 rlineto
          6 4 2 6 6 vvcurveto
          40 vlineto
          7 -2 6 -6 4 vhcurveto
          -299 183 50 callsubr
          -2 0 -1 hhcurveto
          49 callgsubr
          -4 -2 hvcurveto
          -42 -72 67 callsubr
          -2 45 callgsubr
          -18 callsubr
          211 -130 rlineto
          endchar
        </CharString>
        <CharString name="greaterequal">
          -56 426 hmoveto
          1 callsubr
          -352 hlineto
          -8 -3 -3 -17 callsubr
          213 309 rmoveto
          -211 -100 rlineto
          -3 -1 -2 -3 46 callsubr
          3 -2 3 hhcurveto
          2 1 1 1 2 hvcurveto
          299 153 rlineto
          7 4 1 6 7 vvcurveto
          40 vlineto
          7 -1 6 -7 4 vhcurveto
          -299 154 rlineto
          -2 -1 1 -2 hhcurveto
          -3 -3 -1 -4 -2 hvcurveto
          -42 -73 rlineto
          -2 -2 0 -3 -1 vvcurveto
          -3 2 55 callsubr
          endchar
        </CharString>
        <CharString name="guillemotleft">
          -42 -37 callgsubr
          285 68 rmoveto
          15 42 callsubr
          -4 5 -7 -9 -8 -12 -3 -3 vhcurveto
          -174 54 callsubr
          -5 -5 -5 -6 vvcurveto
          -6 5 -5 4 -5 vhcurveto
          174 54 callsubr
          3 8 -11 9 hhcurveto
          7 4 43 callgsubr
          -15 16 vhcurveto
          -65 68 rlineto
          endchar
        </CharString>
        <CharString name="guillemotright">
          -42 284 186 31 callgsubr
          4 -5 8 8 8 11 4 3 vhcurveto
          174 208 rlineto
          4 5 5 5 6 vvcurveto
          6 -5 5 -4 5 vhcurveto
          -174 208 rlineto
          3 -3 -8 12 -8 hhcurveto
          -8 -4 12 callgsubr
          -286 -68 -36 callgsubr
        </CharString>
        <CharString name="guilsinglleft">
          -263 -37 callgsubr
          endchar
        </CharString>
        <CharString name="guilsinglright">
          -263 63 186 -36 callgsubr
        </CharString>
        <CharString name="h">
          -6 callgsubr
          -664 vlineto
          -35 callsubr
          51 vhcurveto
          226 hlineto
          63 7 -90 callgsubr
          -24 -21 -8 -11 -14 vhcurveto
          endchar
        </CharString>
        <CharString name="hbar">
          -6 callgsubr
          -84 -45 vlineto
          -47 callgsubr
          -50 vlineto
          -7 4 -3 6 vhcurveto
          45 -510 hlineto
          -35 callsubr
          51 vhcurveto
          226 hlineto
          63 7 -90 callgsubr
          -24 -21 -8 -11 -14 vhcurveto
          87 96 vlineto
          7 4 3 7 hvcurveto
          50 -30 callsubr
          -8 vhcurveto
          -96 hlineto
          endchar
        </CharString>
        <CharString name="hcircumflex">
          -6 callgsubr
          -664 vlineto
          -35 callsubr
          51 vhcurveto
          226 hlineto
          63 7 -90 callgsubr
          -24 -21 -8 -11 -14 vhcurveto
          -70 349 -84 callsubr
          2 1 4 14 callsubr
          43 rlineto
          2 2 1 3 2 vvcurveto
          2 -23 callsubr
          vhcurveto
          -148 126 rlineto
          1 -2 -1 2 -4 hhcurveto
          -3 -2 -13 callgsubr
          hvcurveto
          -148 -126 34 callsubr
          -1 -2 -2 3 callsubr
          1 10 callsubr
          -43 -103 callgsubr
          109 77 rlineto
          endchar
        </CharString>
        <CharString name="hungarumlaut">
          221 703 -88 callgsubr
          77 callsubr
          -2 -2 vvcurveto
          -2 2 55 callsubr
          35 -30 rlineto
          -2 3 -2 callgsubr
          282 132 -88 callgsubr
          -1 -3 -1 -2 -48 callgsubr
          36 -30 rlineto
          -2 2 -2 callgsubr
          endchar
        </CharString>
        <CharString name="hyphen">
          -11 callgsubr
        </CharString>
        <CharString name="i">
          -106 -88 callsubr
          18 277 -25 callgsubr
          endchar
        </CharString>
        <CharString name="i.alt">
          -106 -28 callgsubr
          76 4 50 29 hvcurveto
          164 vlineto
          31 5 50 -76 -19 callsubr
          -96 callsubr
          -1 285 23 callgsubr
        </CharString>
        <CharString name="iacute">
          -106 -88 callsubr
          323 252 -107 callgsubr
        </CharString>
        <CharString name="ibreve">
          -106 -88 callsubr
          183 230 -102 callsubr
        </CharString>
        <CharString name="icircumflex">
          -106 -88 callsubr
          293 137 -84 callsubr
          2 1 4 14 callsubr
          43 rlineto
          2 2 1 3 2 vvcurveto
          2 -23 callsubr
          vhcurveto
          -148 126 rlineto
          1 -2 -1 2 -4 hhcurveto
          -3 -2 -13 callgsubr
          hvcurveto
          -148 -126 34 callsubr
          -1 -2 -2 3 callsubr
          1 10 callsubr
          -43 -103 callgsubr
          109 77 rlineto
          endchar
        </CharString>
        <CharString name="idieresis">
          -106 -88 callsubr
          24 217 -100 callgsubr
        </CharString>
        <CharString name="igrave">
          -106 -88 callsubr
          229 137 -84 callsubr
          3 1 4 2 hvcurveto
          33 48 rlineto
          2 2 1 3 -6 callsubr
          -35 callgsubr
          -173 131 rlineto
          2 -52 callgsubr
          -3 -3 hvcurveto
          -44 -63 34 callsubr
          -12 callgsubr
          -3 2 -2 -18 callsubr
          endchar
        </CharString>
        <CharString name="ij">
          343 -88 callsubr
          18 277 -25 callgsubr
          450 hmoveto
          -45 callsubr
        </CharString>
        <CharString name="imacron">
          -106 -88 callsubr
          313 167 rmoveto
          -61 callsubr
          78 -30 callsubr
          -7 vhcurveto
          -260 -46 callsubr
          -78 -53 callsubr
          6 vhcurveto
          endchar
        </CharString>
        <CharString name="iogonek">
          -106 -77 callgsubr
          86 -18 callgsubr
          13 -82 callgsubr
          18 277 -25 callgsubr
          endchar
        </CharString>
        <CharString name="itilde">
          -106 -88 callsubr
          286 292 -102 callgsubr
        </CharString>
        <CharString name="j">
          -106 63 709 rmoveto
          -45 callsubr
        </CharString>
        <CharString name="j.alt">
          -106 -66 -174 rmoveto
          -24 37 64 -14 82 hhcurveto
          197 91 66 182 hvcurveto
          220 vlineto
          -16 callgsubr
          -76 5 -50 -31 hvcurveto
          -271 vlineto
          -93 -50 -15 -61 20 vhcurveto
          110 657 23 callgsubr
        </CharString>
        <CharString name="jcircumflex">
          -106 -66 -164 -71 callsubr
          402 697 -84 callsubr
          2 1 4 14 callsubr
          43 rlineto
          2 2 1 3 2 vvcurveto
          2 -23 callsubr
          vhcurveto
          -148 126 rlineto
          1 -2 -1 2 -4 hhcurveto
          -3 -2 -13 callgsubr
          hvcurveto
          -148 -126 34 callsubr
          -1 -2 -2 3 callsubr
          1 10 callsubr
          -43 -103 callgsubr
          109 77 rlineto
          endchar
        </CharString>
        <CharString name="k">
          -57 callsubr
          endchar
        </CharString>
        <CharString name="kcommaaccent">
          -57 callsubr
          190 -854 -101 callsubr
        </CharString>
        <CharString name="kgreenlandic">
          -74 callgsubr
          53 vlineto
          45 -33 callsubr
          endchar
        </CharString>
        <CharString name="l">
          -106 -63 callsubr
          endchar
        </CharString>
        <CharString name="lacute">
          -106 -63 callsubr
          319 223 -107 callgsubr
        </CharString>
        <CharString name="lcaron">
          31 -63 callsubr
          405 -76 rmoveto
          -76 callsubr
        </CharString>
        <CharString name="lcommaaccent">
          -106 -63 callsubr
          118 -854 -101 callsubr
        </CharString>
        <CharString name="ldotaccent">
          48 -63 callsubr
          404 -473 -78 callgsubr
        </CharString>
        <CharString name="less">
          -56 424 385 rmoveto
          3 2 9 callsubr
          vvcurveto
          1 0 -35 callgsubr
          -42 72 rlineto
          4 -2 -3 2 -3 hhcurveto
          -2 -1 0 -2 -2 hvcurveto
          -299 -183 rlineto
          -6 -4 -2 -6 -7 vvcurveto
          -40 vlineto
          -6 2 -6 6 -4 vhcurveto
          299 -183 rlineto
          -2 2 1 0 27 callsubr
          2 -3 2 vhcurveto
          -211 129 rlineto
          endchar
        </CharString>
        <CharString name="lessequal">
          -56 426 hmoveto
          1 callsubr
          -352 hlineto
          -8 -3 -3 -17 callsubr
          350 409 rmoveto
          18 callsubr
          56 callgsubr
          1 0 3 45 callsubr
          -42 73 rlineto
          4 -2 -3 1 -3 -2 -1 -1 -2 hhcurveto
          -299 -154 rlineto
          -7 -4 -1 -6 -7 vvcurveto
          -40 vlineto
          -7 1 -6 7 -4 vhcurveto
          299 -153 rlineto
          -1 2 1 -1 27 callsubr
          3 -3 1 vhcurveto
          -211 100 rlineto
          endchar
        </CharString>
        <CharString name="logicalnot">
          -56 427 371 rmoveto
          -42 callsubr
          -343 hlineto
          -8 -3 -4 -6 hvcurveto
          -84 -9 callgsubr
          248 -129 hlineto
          -7 4 -3 7 vhcurveto
          83 hlineto
          8 3 4 6 hvcurveto
          endchar
        </CharString>
        <CharString name="lslash">
          -97 50 64 callgsubr
          59 13 22 45 hvcurveto
          323 vlineto
          67 31 60 callgsubr
          -3 2 -7 -3 rlinecurve
          -38 -18 rlineto
          265 vlineto
          46 -12 22 -59 -19 callsubr
          -96 callsubr
          -430 vlineto
          -66 -30 -6 -3 -1 -4 2 -7 rlinecurve
          21 -45 3 -7 5 -1 6 3 rlinecurve
          36 17 rlineto
          endchar
        </CharString>
        <CharString name="m">
          210 -77 callgsubr
          210 hlineto
          62 13 -91 callsubr
          14 -1 14 -2 12 vhcurveto
          9 8 21 13 -83 callgsubr
          83 -37 44 -62 -34 -37 -15 -15 -17 vhcurveto
          20 -16 -25 10 -29 hhcurveto
          -35 -33 70 callgsubr
          hvcurveto
          15 -9 -21 -36 callsubr
          endchar
        </CharString>
        <CharString name="macron">
          330 599 rmoveto
          -61 callsubr
          78 -30 callsubr
          -7 vhcurveto
          -260 -46 callsubr
          -78 -53 callsubr
          6 vhcurveto
          endchar
        </CharString>
        <CharString name="micro">
          -56 callgsubr
        </CharString>
        <CharString name="minus">
          -2 callsubr
          endchar
        </CharString>
        <CharString name="mu">
          -56 callgsubr
        </CharString>
        <CharString name="multiply">
          -56 148 431 rmoveto
          2 -2 29 callsubr
          hhcurveto
          77 callsubr
          -2 -2 hvcurveto
          -59 -59 34 callsubr
          -1 -2 -3 vvcurveto
          -2 1 55 callsubr
          101 -102 -101 -101 34 callsubr
          -1 -2 -3 vvcurveto
          -2 1 68 callsubr
          59 -59 rlineto
          -2 2 3 -2 2 hhcurveto
          18 callsubr
          2 2 hvcurveto
          102 102 102 -102 rlineto
          -2 2 -7 callgsubr
          hhcurveto
          2 18 callsubr
          2 hvcurveto
          59 59 rlineto
          3 3 1 2 72 callsubr
          -101 101 101 102 rlineto
          3 2 1 3 72 callsubr
          -59 59 50 callsubr
          -3 2 -2 hhcurveto
          -21 callgsubr
          -2 -2 hvcurveto
          -102 -102 rlineto
          endchar
        </CharString>
        <CharString name="n">
          -89 callgsubr
          endchar
        </CharString>
        <CharString name="nacute">
          -89 callgsubr
          404 252 -107 callgsubr
        </CharString>
        <CharString name="napostrophe">
          135 128 68 rmoveto
          -81 callsubr
          210 hlineto
          62 13 -90 callgsubr
          -35 -32 70 callgsubr
          vhcurveto
          15 -8 -23 -36 callsubr
          -128 208 -101 callsubr
        </CharString>
        <CharString name="nbspace">
          -256 endchar
        </CharString>
        <CharString name="ncaron">
          -89 callgsubr
          264 245 rmoveto
          -107 callsubr
        </CharString>
        <CharString name="ncommaaccent">
          -89 callgsubr
          212 -554 -101 callsubr
        </CharString>
        <CharString name="nine">
          30 30 264 rmoveto
          -141 110 -112 159 21 17 2 6 19 vhcurveto
          -68 -82 -77 -43 -46 -23 rrcurveto
          -3 -2 -4 -2 -5 vvcurveto
          -2 1 -2 1 10 callsubr
          -48 rlineto
          -7 5 2 -2 5 hhcurveto
          3 3 2 1 3 hvcurveto
          184 94 158 168 200 vvcurveto
          154 -117 99 -146 -146 -117 -113 -140 vhcurveto
          375 19 callgsubr
        </CharString>
        <CharString name="notequal">
          -56 353 489 rmoveto
          1 4 0 56 callgsubr
          8 -5 5 -11 3 vhcurveto
          -30 8 rlineto
          1 -4 -3 1 -4 hhcurveto
          -8 -6 -3 -16 -4 hvcurveto
          -28 -101 rlineto
          -168 -46 callsubr
          -83 -53 callsubr
          6 vhcurveto
          140 hlineto
          -24 -91 rlineto
          -116 -46 callsubr
          -84 -53 callsubr
          6 vhcurveto
          87 hlineto
          -23 -86 35 callgsubr
          33 callgsubr
          hhcurveto
          10 6 11 6 2 hvcurveto
          28 105 rlineto
          168 hlineto
          -61 callsubr
          84 -30 callsubr
          -7 vhcurveto
          -140 hlineto
          25 91 rlineto
          115 hlineto
          -61 callsubr
          83 -30 callsubr
          -7 vhcurveto
          -87 hlineto
          endchar
        </CharString>
        <CharString name="ntilde">
          -89 callgsubr
          362 292 -102 callgsubr
        </CharString>
        <CharString name="numbersign">
          -91 386 236 rmoveto
          -61 callsubr
          69 -30 callsubr
          -7 vhcurveto
          -50 hlineto
          19 110 rlineto
          60 hlineto
          -61 callsubr
          69 -49 callgsubr
          -45 hlineto
          26 152 rlineto
          1 5 0 2 28 callgsubr
          -111 hlineto
          26 152 rlineto
          1 6 0 1 28 callgsubr
          -61 hlineto
          -8 -4 -4 -6 hvcurveto
          -69 -9 callgsubr
          47 hlineto
          -19 -110 rlineto
          -56 hlineto
          -8 -31 callsubr
          -69 vlineto
          -8 3 -3 7 vhcurveto
          42 11 callgsubr
          111 11 callgsubr
          -136 200 rmoveto
          111 hlineto
          -19 -110 rlineto
          -110 hlineto
          endchar
        </CharString>
        <CharString name="o">
          -98 callgsubr
          endchar
        </CharString>
        <CharString name="oacute">
          -98 callgsubr
          -24 584 -107 callgsubr
        </CharString>
        <CharString name="obreve">
          -98 callgsubr
          -149 562 -102 callsubr
        </CharString>
        <CharString name="ocircumflex">
          -98 callgsubr
          -41 469 -84 callsubr
          2 1 4 14 callsubr
          43 rlineto
          2 2 1 3 2 vvcurveto
          2 -23 callsubr
          vhcurveto
          -148 126 rlineto
          1 -2 -1 2 -4 hhcurveto
          -3 -2 -13 callgsubr
          hvcurveto
          -148 -126 34 callsubr
          -1 -2 -2 3 callsubr
          1 10 callsubr
          -43 -103 callgsubr
          109 77 rlineto
          endchar
        </CharString>
        <CharString name="odieresis">
          -98 callgsubr
          -310 549 -100 callgsubr
        </CharString>
        <CharString name="oe">
          356 663 266 -58 callgsubr
          69 -19 rmoveto
          219 -150 51 -89 -70 -41 -17 -17 -35 vhcurveto
          20 -46 -51 14 -77 hhcurveto
          -83 callsubr
          73 60 13 21 41 hvcurveto
          -14 24 48 -20 67 hhcurveto
          90 78 38 35 41 66 callgsubr
          -1 3 vhcurveto
          -18 29 rlineto
          4 -3 76 callsubr
          -6 -23 -25 -39 hhcurveto
          -24 callsubr
          221 hlineto
          -409 -106 -75 callgsubr
          endchar
        </CharString>
        <CharString name="ogonek">
          191 hmoveto
          -74 -35 -49 -55 -50 -1 callsubr
          28 42 84 57 68 29 hvcurveto
          endchar
        </CharString>
        <CharString name="ograve">
          -98 callgsubr
          -71 469 -84 callsubr
          3 1 4 2 hvcurveto
          33 48 rlineto
          2 2 1 3 -6 callsubr
          -35 callgsubr
          -173 131 rlineto
          2 -52 callgsubr
          -3 -3 hvcurveto
          -44 -63 34 callsubr
          -12 callgsubr
          -3 2 -2 -18 callsubr
          endchar
        </CharString>
        <CharString name="ohungarumlaut">
          -98 callgsubr
          -118 603 -88 callgsubr
          77 callsubr
          -2 -2 vvcurveto
          -2 2 55 callsubr
          35 -30 rlineto
          -2 3 -2 callgsubr
          282 132 -88 callgsubr
          -1 -3 -1 -2 -48 callgsubr
          36 -30 rlineto
          -2 2 -2 callgsubr
          endchar
        </CharString>
        <CharString name="omacron">
          -98 callgsubr
          -19 499 rmoveto
          -61 callsubr
          78 -30 callsubr
          -7 vhcurveto
          -260 -46 callsubr
          -78 -53 callsubr
          6 vhcurveto
          endchar
        </CharString>
        <CharString name="one">
          -63 98 413 rmoveto
          -345 vlineto
          -35 callsubr
          56 vhcurveto
          202 hlineto
          76 -3 38 29 hvcurveto
          369 vlineto
          28 3 53 -58 -4 -18 -2 -1 -11 vhcurveto
          -333 -49 rlineto
          -20 -3 -1 -6 -11 vvcurveto
          -1 1 -8 0 vhcurveto
          4 -34 rlineto
          -9 1 8 -4 9 hhcurveto
          4 4 1 1 2 hvcurveto
          endchar
        </CharString>
        <CharString name="onehalf">
          279 -65 callsubr
          776 -611 rmoveto
          16 2 9 6 hvcurveto
          34 vlineto
          12 -5 4 -15 -12 -84 -3 -3 -72 vhcurveto
          114 65 46 65 66 vvcurveto
          64 -38 72 -128 -66 -65 -19 -30 -36 vhcurveto
          -1 -1 -2 -2 -2 -2 1 0 -2 vvcurveto
          17 -27 rlineto
          -1 1 2 -2 2 4 11 10 13 hhcurveto
          26 18 -17 -67 -60 -32 -83 -42 -58 hvcurveto
          -5 -7 -4 -6 -5 vvcurveto
          -8 4 -2 9 vhcurveto
          endchar
        </CharString>
        <CharString name="onequarter">
          248 -65 callsubr
          711 -456 -5 callgsubr
          -41 -8 -26 callgsubr
          endchar
        </CharString>
        <CharString name="onesuperior">
          -201 66 625 rmoveto
          -308 vlineto
          -26 8 -14 38 vhcurveto
          145 hlineto
          51 -2 23 17 hvcurveto
          341 vlineto
          24 2 24 -39 -3 -12 -1 -1 -7 vhcurveto
          -233 -26 callsubr
          endchar
        </CharString>
        <CharString name="ordfeminine">
          -76 384 336 rmoveto
          47 9 17 33 hvcurveto
          163 vlineto
          149 -98 17 -110 -77 -70 -27 -22 -32 vhcurveto
          -3 -2 -4 -3 -4 vvcurveto
          -1 0 -27 callsubr
          vhcurveto
          12 -24 rlineto
          -3 2 2 -2 2 hhcurveto
          18 callsubr
          2 3 hvcurveto
          8 13 25 13 20 hhcurveto
          16 22 -4 -39 hvcurveto
          -21 vlineto
          -75 -6 -70 -35 -85 vvcurveto
          -94 84 -28 79 vhcurveto
          -18 197 rmoveto
          -145 vlineto
          -70 -18 32 38 38 18 37 70 hvcurveto
          endchar
        </CharString>
        <CharString name="ordmasculine">
          -56 250 314 rmoveto
          103 123 33 171 165 -125 32 -101 -110 -116 -50 -150 -152 116 -49 110 hvcurveto
          110 93 rmoveto
          -32 -27 13 95 93 36 14 23 30 29 -21 -83 -89 -28 -22 -31 hvcurveto
          endchar
        </CharString>
        <CharString name="oslash">
          -71 callgsubr
          endchar
        </CharString>
        <CharString name="oslashacute">
          -71 callgsubr
          72 434 -107 callgsubr
        </CharString>
        <CharString name="otilde">
          -98 callgsubr
          -46 624 -102 callgsubr
        </CharString>
        <CharString name="p">
          88 325 511 rmoveto
          -178 -102 -91 -162 hvcurveto
          -391 vlineto
          16 callgsubr
          199 -148 59 -145 vhcurveto
          224 -258 30 callsubr
        </CharString>
        <CharString name="paragraph">
          17 363 678 32 callgsubr
          -31 hlineto
          -124 -143 -50 -158 -180 119 -46 124 -9 hvcurveto
          -365 -9 callsubr
          31 -14 callsubr
          110 785 32 callgsubr
          -31 32 callsubr
          -785 -9 callsubr
          31 -14 callsubr
          endchar
        </CharString>
        <CharString name="parenleft">
          -135 50 300 rmoveto
          -281 149 -151 110 -62 vhcurveto
          -3 5 7 -3 6 hhcurveto
          7 7 4 13 hvcurveto
          965 vlineto
          14 -7 4 -7 -6 -7 -3 -3 -5 vhcurveto
          -110 -63 -149 -150 -281 vvcurveto
          endchar
        </CharString>
        <CharString name="parenright">
          -135 371 300 rmoveto
          281 -149 150 -110 63 vhcurveto
          3 -5 -7 62 callsubr
          -8 -6 -4 -14 hvcurveto
          -965 vlineto
          -13 6 -4 8 6 7 3 3 5 vhcurveto
          110 62 149 151 281 vvcurveto
          endchar
        </CharString>
        <CharString name="partialdiff">
          14 188 756 rmoveto
          1 -1 -3 1 -4 hhcurveto
          -3 -4 -2 -6 -4 hvcurveto
          -31 -47 rlineto
          -3 -4 -12 callgsubr
          -5 5 -2 3 -1 vhcurveto
          51 -30 99 -65 69 -108 rrcurveto
          13 -32 -33 4 -32 hhcurveto
          -111 -116 -80 -179 -180 129 -78 123 111 134 58 204 238 -162 185 -184 88 hvcurveto
          152 -656 rmoveto
          -53 -48 39 102 103 48 39 53 53 47 -35 -103 -102 -47 -43 -53 hvcurveto
          endchar
        </CharString>
        <CharString name="percent">
          198 -68 callsubr
          endchar
        </CharString>
        <CharString name="period">
          -230 50 28 callsubr
          endchar
        </CharString>
        <CharString name="periodcentered">
          -230 50 272 rmoveto
          29 callgsubr
        </CharString>
        <CharString name="perthousand">
          568 -68 callsubr
          142 83 -41 callgsubr
          endchar
        </CharString>
        <CharString name="plus">
          -56 302 432 rmoveto
          52 callgsubr
          -124 -124 vlineto
          -8 -3 -4 -17 callsubr
          124 -124 48 callsubr
          124 124 vlineto
          19 callsubr
          -124 hlineto
          endchar
        </CharString>
        <CharString name="plusminus">
          -56 426 252 rmoveto
          1 callsubr
          -124 100 hlineto
          52 callgsubr
          -100 -124 vlineto
          -8 -3 -3 -17 callsubr
          124 -100 48 callsubr
          100 vlineto
          124 -252 rmoveto
          1 callsubr
          -352 hlineto
          -8 -3 -3 -17 callsubr
          endchar
        </CharString>
        <CharString name="q">
          88 599 432 rmoveto
          -4 callgsubr
          -209 hlineto
          -144 -145 -60 -192 -161 99 -66 114 -21 hvcurveto
          -133 vlineto
          -47 16 -21 55 vhcurveto
          214 hlineto
          62 13 22 callsubr
          -504 381 rmoveto
          97 43 73 101 12 vhcurveto
          -368 vlineto
          -101 13 -43 75 98 vvcurveto
          endchar
        </CharString>
        <CharString name="question">
          -30 486 543 rmoveto
          84 -62 95 -178 -88 -73 -19 -32 -46 vhcurveto
          -2 34 callgsubr
          -3 vvcurveto
          -2 0 -27 callsubr
          vhcurveto
          19 -31 rlineto
          -3 3 2 -1 2 hhcurveto
          2 3 1 1 3 hvcurveto
          7 14 26 11 27 hhcurveto
          60 34 -36 -62 -41 -19 -69 -68 -32 hvcurveto
          -1 77 callgsubr
          -5 vvcurveto
          -116 vlineto
          -22 12 -1 9 vhcurveto
          44 -14 callsubr
          60 vlineto
          240 20 23 106 77 vvcurveto
          -418 -440 rmoveto
          29 callgsubr
        </CharString>
        <CharString name="questiondown">
          -30 40 165 rmoveto
          -84 62 -96 178 88 73 20 31 46 vhcurveto
          9 callsubr
          2 4 vvcurveto
          1 0 -35 callgsubr
          -19 30 rlineto
          4 -52 callgsubr
          -1 -3 hvcurveto
          -7 -14 -26 -11 -27 hhcurveto
          -60 -34 37 62 41 19 68 68 33 hvcurveto
          1 1 4 0 6 vvcurveto
          116 vlineto
          22 -12 1 -9 vhcurveto
          -44 hlineto
          -17 -3 -13 -10 hvcurveto
          -60 vlineto
          -240 -20 -23 -107 -76 vvcurveto
          418 439 rmoveto
          63 -51 50 -62 -62 -51 -50 -63 -62 51 -50 62 62 51 50 62 vhcurveto
          endchar
        </CharString>
        <CharString name="quotedbl">
          -210 145 678 -27 callgsubr
          141 235 -27 callgsubr
          endchar
        </CharString>
        <CharString name="quotedblbase">
          -107 413 115 -44 callgsubr
          6 -4 7 0 callsubr
          -31 300 -34 callgsubr
        </CharString>
        <CharString name="quotedblleft">
          -107 144 691 73 callsubr
          -7 hhcurveto
          -4 -4 -1 -3 51 callgsubr
          2 -5 4 53 callsubr
          -9 7 4 -3 53 callgsubr
          4 2 6 5 17 callgsubr
          -3 5 vhcurveto
          31 300 73 callsubr
          -7 hhcurveto
          -4 49 callgsubr
          51 callgsubr
          1 -5 5 53 callsubr
          -8 6 5 -4 53 callgsubr
          5 2 5 5 17 callgsubr
          -3 5 vhcurveto
          endchar
        </CharString>
        <CharString name="quotedblright">
          -107 186 488 54 callgsubr
          -5 4 -6 6 -4 15 callgsubr
          5 vvcurveto
          8 -6 4 -7 5 64 callsubr
          -8 -6 -6 -6 -4 hvcurveto
          -268 -106 54 callgsubr
          -5 4 -5 6 -5 vhcurveto
          49 -32 rlineto
          -3 5 6 -4 55 callgsubr
          4 8 6 hvcurveto
          140 189 rlineto
          5 6 1 5 5 vvcurveto
          8 -6 5 -7 4 vhcurveto
          -70 46 rlineto
          2 -4 -4 2 -4 hhcurveto
          -8 -6 -5 -7 -4 hvcurveto
          endchar
        </CharString>
        <CharString name="quoteleft">
          -257 144 706 73 callsubr
          -8 hhcurveto
          -3 -4 -1 -3 -4 hvcurveto
          -70 -46 rlineto
          -7 -4 -6 -5 -9 vvcurveto
          -4 1 -5 5 53 callsubr
          -9 6 5 -3 5 hhcurveto
          6 6 3 4 5 hvcurveto
          49 32 rlineto
          7 5 3 4 6 vvcurveto
          5 -3 6 -3 4 vhcurveto
          endchar
        </CharString>
        <CharString name="quoteright">
          -257 36 503 54 callgsubr
          -6 3 -4 7 -5 15 callgsubr
          4 vvcurveto
          9 -6 5 -7 4 64 callsubr
          -7 -7 -6 -6 -4 hvcurveto
          endchar
        </CharString>
        <CharString name="quotesinglbase">
          -257 263 115 -34 callgsubr
        </CharString>
        <CharString name="quotesingle">
          -351 145 678 -27 callgsubr
          endchar
        </CharString>
        <CharString name="r">
          -80 callgsubr
          endchar
        </CharString>
        <CharString name="racute">
          -80 callgsubr
          321 252 -107 callgsubr
        </CharString>
        <CharString name="rcaron">
          -80 callgsubr
          181 245 rmoveto
          -107 callsubr
        </CharString>
        <CharString name="rcommaaccent">
          -80 callgsubr
          120 -554 -101 callsubr
        </CharString>
        <CharString name="registered">
          66 50 464 rmoveto
          -144 117 -117 144 144 117 117 144 144 -117 117 -144 -144 -117 -117 -144 vhcurveto
          62 hmoveto
          110 89 89 110 110 89 -89 -110 -110 -89 -89 -110 -110 -89 89 110 vhcurveto
          103 -101 rmoveto
          -17 5 -9 23 vhcurveto
          65 hlineto
          20 5 9 16 hvcurveto
          41 vlineto
          12 1 12 3 11 4 31 -70 rcurveline
          3 -8 7 0 4 2 22 10 rcurveline
          4 3 2 5 -4 7 -40 66 rcurveline
          20 16 13 24 36 vvcurveto
          77 -56 23 -55 1 vhcurveto
          -76 hlineto
          -23 -5 -9 -17 hvcurveto
          118 -10 rmoveto
          43 18 -30 -35 -33 -18 -30 -43 hvcurveto
          endchar
        </CharString>
        <CharString name="ring">
          75 686 -59 callsubr
        </CharString>
        <CharString name="s">
          -90 callsubr
          endchar
        </CharString>
        <CharString name="sacute">
          -90 callsubr
          140 167 -107 callgsubr
        </CharString>
        <CharString name="scaron">
          -90 callsubr
          160 vmoveto
          -107 callsubr
        </CharString>
        <CharString name="scedilla">
          -74 callsubr
          28 -9 83 -25 92 -5 rrcurveto
          -6 -33 -8 -35 38 callgsubr
          -21 16 -16 -11 callsubr
          31 93 31 callsubr
          6 26 133 11 65 61 9 73 rlinecurve
          -70 callsubr
          endchar
        </CharString>
        <CharString name="scircumflex">
          -90 callsubr
          110 52 -84 callsubr
          2 1 4 14 callsubr
          43 rlineto
          2 2 1 3 2 vvcurveto
          2 -23 callsubr
          vhcurveto
          -148 126 rlineto
          1 -2 -1 2 -4 hhcurveto
          -3 -2 -13 callgsubr
          hvcurveto
          -148 -126 34 callsubr
          -1 -2 -2 3 callsubr
          1 10 callsubr
          -43 -103 callgsubr
          109 77 rlineto
          endchar
        </CharString>
        <CharString name="section">
          -111 404 342 rmoveto
          153 -176 13 73 vvcurveto
          27 18 19 38 vhcurveto
          23 15 -10 5 78 callgsubr
          6 5 2 hvcurveto
          11 31 5 12 -9 3 -5 2 rlinecurve
          11 -28 -42 14 -51 hhcurveto
          -100 -56 -55 -78 -45 18 -34 24 -29 hvcurveto
          -40 -28 -21 -42 -49 -161 180 -20 -73 vvcurveto
          -36 -32 -12 -30 vhcurveto
          -31 -28 18 -7 hhcurveto
          -5 -1 -2 -9 -3 hvcurveto
          -12 -33 -4 -12 6 -2 4 -1 rlinecurve
          -14 27 47 -17 70 hhcurveto
          100 66 65 77 55 -24 32 -25 26 hvcurveto
          41 28 23 42 50 vvcurveto
          -127 -75 rmoveto
          -63 42 -61 34 43 vvcurveto
          10 5 13 12 7 vhcurveto
          70 -51 49 -22 -40 vvcurveto
          -11 -1 -16 -11 -9 vhcurveto
          endchar
        </CharString>
        <CharString name="semicolon">
          -200 65 397 -46 callgsubr
          -294 vmoveto
          -57 42 -46 55 -8 vhcurveto
          -46 -15 callsubr
        </CharString>
        <CharString name="seven">
          -53 287 -136 rmoveto
          29 21 16 37 10 hvcurveto
          134 516 rlineto
          3 11 2 12 7 vvcurveto
          22 -11 15 -29 vhcurveto
          -419 hlineto
          -22 -5 -12 -12 hvcurveto
          -32 vlineto
          -13 -2 -17 30 vhcurveto
          151 7 -128 -496 rlineto
          -36 -9 19 -25 31 hhcurveto
          endchar
        </CharString>
        <CharString name="six">
          30 556 234 rmoveto
          140 -110 113 -159 -26 -17 -3 -6 -19 vhcurveto
          65 79 78 52 47 25 rrcurveto
          5 3 7 3 7 -66 callgsubr
          4 vhcurveto
          -28 46 rlineto
          6 -4 -4 3 -5 hhcurveto
          -4 -4 -3 -1 -3 hvcurveto
          -183 -94 -159 -171 -198 vvcurveto
          -154 117 -109 146 152 111 105 148 vhcurveto
          -151 140 rmoveto
          43 39 -38 -97 -97 -39 -35 -43 -43 -39 35 97 97 39 38 43 hvcurveto
          endchar
        </CharString>
        <CharString name="slash">
          -242 289 688 rmoveto
          1 4 0 56 callgsubr
          9 -5 3 -11 4 vhcurveto
          -30 8 rlineto
          2 -4 -4 0 -3 hhcurveto
          -8 -6 -2 -16 -5 hvcurveto
          -188 -689 35 callgsubr
          3 2 0 3 hhcurveto
          10 5 11 7 2 hvcurveto
          endchar
        </CharString>
        <CharString name="space">
          -256 endchar
        </CharString>
        <CharString name="sterling">
          54 71 223 rmoveto
          -160 vlineto
          -42 1 rlineto
          -11 -8 -2 -14 hvcurveto
          -28 vlineto
          -17 5 -3 15 vhcurveto
          548 hlineto
          22 0 10 callgsubr
          34 vlineto
          13 -9 57 callgsubr
          -74 -5 -6 -71 vhcurveto
          160 105 vlineto
          1 callgsubr
          -105 200 hlineto
          97 41 26 46 14 15 -2 -4 14 vhcurveto
          4 -1 7 -2 9 vvcurveto
          38 vlineto
          11 -5 2 -3 2 vhcurveto
          22 -40 -78 20 -75 hhcurveto
          -124 -159 -64 -237 hvcurveto
          -117 -40 callgsubr
          endchar
        </CharString>
        <CharString name="t">
          -7 -79 callsubr
          endchar
        </CharString>
        <CharString name="tbar">
          -7 61 340 rmoveto
          -68 -51 vlineto
          -47 callgsubr
          -40 -53 callsubr
          6 vhcurveto
          51 -64 hlineto
          -55 callsubr
          68 61 vlineto
          -61 callsubr
          40 -30 callsubr
          -7 vhcurveto
          -61 68 88 hlineto
          -56 callsubr
          endchar
        </CharString>
        <CharString name="tcaron">
          42 -79 callsubr
          451 316 rmoveto
          -76 callsubr
        </CharString>
        <CharString name="tcommaaccent">
          -7 -79 callsubr
          202 -462 -101 callsubr
        </CharString>
        <CharString name="thorn">
          88 45 -133 rmoveto
          16 callgsubr
          162 -98 69 -115 20 vhcurveto
          225 vlineto
          47 -18 24 -52 vhcurveto
          -215 -96 callsubr
          504 -479 30 callsubr
        </CharString>
        <CharString name="three">
          -77 107 137 rmoveto
          5 -5 5 3 3 1 rrcurveto
          4 6 9 4 11 hhcurveto
          39 17 -42 -80 -88 -41 -54 -59 hvcurveto
          -33 -28 15 -7 hhcurveto
          -3 -3 1 -7 -3 hvcurveto
          -12 -38 -3 -7 4 -4 5 -2 rlinecurve
          -22 55 65 -11 53 hhcurveto
          156 121 90 131 136 -103 70 -124 1 hvcurveto
          193 205 rlineto
          24 22 -2 38 -40 hhcurveto
          -347 hlineto
          -22 -10 -12 -12 hvcurveto
          -121 vlineto
          -13 2 -17 31 vhcurveto
          163 hlineto
          -141 -157 -4 -4 -1 -5 5 -5 rlinecurve
          endchar
        </CharString>
        <CharString name="threequarters">
          253 622 -63 callgsubr
          539 152 -5 callgsubr
          -42 -7 -26 callgsubr
          -705 346 rmoveto
          -3 2 4 2 2 hhcurveto
          2 5 10 2 7 hhcurveto
          26 11 -19 -44 -47 -24 -13 -39 hvcurveto
          -22 -23 7 61 callgsubr
          -4 -7 callgsubr
          -1 rlinecurve
          -11 36 49 -6 34 hhcurveto
          103 89 48 70 73 -62 37 -82 1 hvcurveto
          122 114 rlineto
          13 14 -2 20 -26 hhcurveto
          -242 hlineto
          -15 -6 -6 -7 hvcurveto
          -79 vlineto
          -7 1 -8 20 vhcurveto
          86 hlineto
          -71 -66 -2 -3 1 5 callgsubr
          rlinecurve
          endchar
        </CharString>
        <CharString name="threesuperior">
          -215 74 471 rmoveto
          -3 4 18 callsubr
          hhcurveto
          3 4 11 2 7 hhcurveto
          26 11 -22 -50 -55 -24 -20 -40 hvcurveto
          -22 -24 8 61 callgsubr
          -5 -43 callgsubr
          -2 rlinecurve
          -13 37 49 -6 35 hhcurveto
          105 91 55 80 84 -69 42 -83 1 hvcurveto
          129 131 rlineto
          15 15 -2 23 -27 hhcurveto
          -247 hlineto
          -14 -7 -7 -7 hvcurveto
          -86 vlineto
          -8 1 -10 21 vhcurveto
          93 hlineto
          -82 -81 -3 -2 0 -4 3 -2 rlinecurve
          endchar
        </CharString>
        <CharString name="tilde">
          303 724 -102 callgsubr
        </CharString>
        <CharString name="trademark">
          209 83 643 rmoveto
          -242 vlineto
          -21 5 -11 29 vhcurveto
          103 hlineto
          29 6 11 21 hvcurveto
          242 vlineto
          0 53 -11 10 5 4 1 6 vhcurveto
          50 vlineto
          6 -5 6 -10 vhcurveto
          -287 hlineto
          -10 -5 -6 -6 hvcurveto
          -50 vlineto
          -6 4 -1 5 10 54 11 0 vhcurveto
          489 -242 rmoveto
          -21 7 -11 25 vhcurveto
          107 hlineto
          28 5 13 19 hvcurveto
          271 vlineto
          16 -10 13 -23 vhcurveto
          -66 hlineto
          -30 -6 -13 -19 -10 hvcurveto
          -39 -76 -60 95 rlineto
          9 -6 -9 4 -11 hhcurveto
          -95 hlineto
          -19 -7 -13 -12 hvcurveto
          -294 vlineto
          -10 6 -3 5 vhcurveto
          46 hlineto
          11 2 6 9 -1 hvcurveto
          -1 19 -4 120 0 vvcurveto
          57 -108 rlineto
          -8 5 6 -7 11 hhcurveto
          11 6 7 9 4 hvcurveto
          55 109 rlineto
          endchar
        </CharString>
        <CharString name="two">
          -46 485 hmoveto
          59 callsubr
          8 hvcurveto
          33 vlineto
          16 -8 5 -20 -17 -116 -4 -5 -99 vhcurveto
          158 86 63 99 88 vvcurveto
          84 -52 95 -178 -91 -88 -25 -40 -51 vhcurveto
          -13 callgsubr
          -3 -1 callgsubr
          1 -2 1 -1 vhcurveto
          21 -33 rlineto
          -2 1 -43 callgsubr
          6 20 15 16 hhcurveto
          36 24 -29 -89 -78 -44 -110 -58 -77 hvcurveto
          -7 -9 -6 -8 -7 vvcurveto
          -11 7 -2 12 vhcurveto
          endchar
        </CharString>
        <CharString name="twosuperior">
          -175 354 59 callgsubr
          15 2 10 6 hvcurveto
          33 vlineto
          13 -5 5 -15 -12 -84 -3 -4 -72 vhcurveto
          114 72 46 77 75 vvcurveto
          70 -38 80 -128 -66 -65 -21 -34 -36 vhcurveto
          -1 -1 -2 -2 -2 -2 1 -1 -1 vvcurveto
          17 -31 rlineto
          -1 1 2 -2 2 5 10 12 14 hhcurveto
          25 18 -20 -75 -65 -32 -92 -42 -65 hvcurveto
          -5 -8 -4 -7 -5 vvcurveto
          -9 4 -2 9 vhcurveto
          endchar
        </CharString>
        <CharString name="u">
          -105 callsubr
          endchar
        </CharString>
        <CharString name="uacute">
          -105 callsubr
          63 565 -107 callgsubr
        </CharString>
        <CharString name="ubreve">
          -105 callsubr
          -77 543 -102 callsubr
        </CharString>
        <CharString name="ucircumflex">
          -105 callsubr
          33 450 -84 callsubr
          2 1 4 14 callsubr
          43 rlineto
          2 2 1 3 2 vvcurveto
          2 -23 callsubr
          vhcurveto
          -148 126 rlineto
          1 -2 -1 2 -4 hhcurveto
          -3 -2 -13 callgsubr
          hvcurveto
          -148 -126 34 callsubr
          -1 -2 -2 3 callsubr
          1 10 callsubr
          -43 -103 callgsubr
          109 77 rlineto
          endchar
        </CharString>
        <CharString name="udieresis">
          -105 callsubr
          -236 530 -100 callgsubr
        </CharString>
        <CharString name="ugrave">
          -105 callsubr
          -31 450 -84 callsubr
          3 1 4 2 hvcurveto
          33 48 rlineto
          2 2 1 3 -6 callsubr
          -35 callgsubr
          -173 131 rlineto
          2 -52 callgsubr
          -3 -3 hvcurveto
          -44 -63 34 callsubr
          -12 callgsubr
          -3 2 -2 -18 callsubr
          endchar
        </CharString>
        <CharString name="uhungarumlaut">
          -105 callsubr
          -46 584 -88 callgsubr
          77 callsubr
          -2 -2 vvcurveto
          -2 2 55 callsubr
          35 -30 rlineto
          -2 3 -2 callgsubr
          282 132 -88 callgsubr
          -1 -3 -1 -2 -48 callgsubr
          36 -30 rlineto
          -2 2 -2 callgsubr
          endchar
        </CharString>
        <CharString name="umacron">
          -105 callsubr
          53 480 rmoveto
          -61 callsubr
          78 -30 callsubr
          -7 vhcurveto
          -260 -46 callsubr
          -78 -53 callsubr
          6 vhcurveto
          endchar
        </CharString>
        <CharString name="underscore">
          -154 392 -250 rmoveto
          -61 callsubr
          88 -49 callgsubr
          -382 40 callgsubr
          -4 -6 hvcurveto
          -88 -53 callsubr
          6 vhcurveto
          endchar
        </CharString>
        <CharString name="uni00AD">
          -11 callgsubr
        </CharString>
        <CharString name="uni0312">
          269 634 -22 callgsubr
        </CharString>
        <CharString name="uni0315">
          -419 656 vmoveto
          -76 callsubr
        </CharString>
        <CharString name="uni2215">
          -38 callgsubr
        </CharString>
        <CharString name="uogonek">
          -86 callgsubr
          129 72 27 12 32 vhcurveto
          -115 -52 -48 -63 -49 0 callgsubr
          27 41 73 58 68 25 hvcurveto
          8 3 7 3 17 vvcurveto
          -87 callsubr
          endchar
        </CharString>
        <CharString name="uring">
          -105 callsubr
          -202 567 -59 callsubr
        </CharString>
        <CharString name="utilde">
          -105 callsubr
          26 605 -102 callgsubr
        </CharString>
        <CharString name="v">
          1 316 479 rmoveto
          16 -7 -9 5 -33 hhcurveto
          -238 hlineto
          -13 -16 -7 -17 -5 2 -6 3 -6 hvcurveto
          201 -427 rlineto
          -13 6 8 -19 27 hhcurveto
          77 hlineto
          21 9 11 22 10 hvcurveto
          187 441 rlineto
          3 8 2 5 5 vvcurveto
          6 -4 2 -10 vhcurveto
          -52 2 callgsubr
          -183 rlineto
          endchar
        </CharString>
        <CharString name="w">
          -99 callgsubr
          endchar
        </CharString>
        <CharString name="wacute">
          -99 callgsubr
          -93 423 -107 callgsubr
        </CharString>
        <CharString name="wcircumflex">
          -99 callgsubr
          -123 308 -84 callsubr
          2 1 4 14 callsubr
          43 rlineto
          2 2 1 3 2 vvcurveto
          2 -23 callsubr
          vhcurveto
          -148 126 rlineto
          1 -2 -1 2 -4 hhcurveto
          -3 -2 -13 callgsubr
          hvcurveto
          -148 -126 34 callsubr
          -1 -2 -2 3 callsubr
          1 10 callsubr
          -43 -103 callgsubr
          109 77 rlineto
          endchar
        </CharString>
        <CharString name="wdieresis">
          -99 callgsubr
          -392 388 -100 callgsubr
        </CharString>
        <CharString name="wgrave">
          -99 callgsubr
          -187 308 -84 callsubr
          3 1 4 2 hvcurveto
          33 48 rlineto
          2 2 1 3 -6 callsubr
          -35 callgsubr
          -173 131 rlineto
          2 -52 callgsubr
          -3 -3 hvcurveto
          -44 -63 34 callsubr
          -12 callgsubr
          -3 2 -2 -18 callsubr
          endchar
        </CharString>
        <CharString name="x">
          80 265 29 rmoveto
          -10 5 11 -19 32 hhcurveto
          287 hlineto
          15 18 0 22 7 -5 9 -4 8 hvcurveto
          -139 238 110 179 rlineto
          5 9 3 7 6 vvcurveto
          10 -7 5 -11 vhcurveto
          -55 hlineto
          -27 -7 -19 -21 -13 hvcurveto
          -50 -87 -63 107 rlineto
          12 -8 -8 8 -33 hhcurveto
          -282 hlineto
          -19 -10 -7 -15 -5 2 -7 4 -6 hvcurveto
          125 -217 -126 -206 rlineto
          -6 -9 -2 -7 -6 vvcurveto
          -10 7 -5 9 vhcurveto
          57 hlineto
          25 8 19 21 12 hvcurveto
          67 115 rlineto
          endchar
        </CharString>
        <CharString name="y">
          -92 callsubr
          endchar
        </CharString>
        <CharString name="yacute">
          -92 callsubr
          65 392 -107 callgsubr
        </CharString>
        <CharString name="ycircumflex">
          -92 callsubr
          35 277 -84 callsubr
          2 1 4 14 callsubr
          43 rlineto
          2 2 1 3 2 vvcurveto
          2 -23 callsubr
          vhcurveto
          -148 126 rlineto
          1 -2 -1 2 -4 hhcurveto
          -3 -2 -13 callgsubr
          hvcurveto
          -148 -126 34 callsubr
          -1 -2 -2 3 callsubr
          1 10 callsubr
          -43 -103 callgsubr
          109 77 rlineto
          endchar
        </CharString>
        <CharString name="ydieresis">
          -92 callsubr
          -234 357 -100 callgsubr
        </CharString>
        <CharString name="yen">
          54 594 664 rmoveto
          4 10 2 8 6 vvcurveto
          9 -5 4 -10 vhcurveto
          -47 -37 callsubr
          -4 -12 57 callsubr
          -247 hlineto
          -16 -18 -11 -23 -6 2 -8 4 -9 hvcurveto
          118 -260 rlineto
          -84 hlineto
          -33 callgsubr
          90 -40 -90 hlineto
          -33 callgsubr
          90 -156 hlineto
          -81 callsubr
          189 hlineto
          68 12 22 45 hvcurveto
          157 90 vlineto
          1 callgsubr
          -90 40 90 hlineto
          1 callgsubr
          -89 hlineto
          endchar
        </CharString>
        <CharString name="ygrave">
          -92 callsubr
          -29 277 -84 callsubr
          3 1 4 2 hvcurveto
          33 48 rlineto
          2 2 1 3 -6 callsubr
          -35 callgsubr
          -173 131 rlineto
          2 -52 callgsubr
          -3 -3 hvcurveto
          -44 -63 34 callsubr
          -12 callgsubr
          -3 2 -2 -18 callsubr
          endchar
        </CharString>
        <CharString name="z">
          -81 callgsubr
          endchar
        </CharString>
        <CharString name="zacute">
          -81 callgsubr
          417 200 -107 callgsubr
        </CharString>
        <CharString name="zcaron">
          -81 callgsubr
          277 193 rmoveto
          -107 callsubr
        </CharString>
        <CharString name="zdotaccent">
          -81 callgsubr
          205 165 -78 callgsubr
        </CharString>
        <CharString name="zero">
          40 30 249 rmoveto
          -148 120 -120 148 148 120 120 148 148 -120 120 -148 -148 -120 -120 -148 vhcurveto
          385 19 callgsubr
        </CharString>
      <CharString index="0">
        rmoveto
        -51 callgsubr
        -66 callgsubr
        3 vhcurveto
        -45 63 rlineto
        3 -3 -27 callsubr
        hhcurveto
        -3 -13 callgsubr
        -2 hvcurveto
        -173 -131 rlineto
        -3 -3 -2 -2 -1 callgsubr
        1 -3 2 10 callsubr
        -48 -103 callgsubr
        endchar
      </CharString>
      <CharString index="1">
        114 327 49 rmoveto
        137 164 39 199 40 -7 33 -13 28 hvcurveto
        71 49 rlineto
        8 6 4 7 7 17 callgsubr
        -4 4 vhcurveto
        -24 26 rlineto
        3 -4 39 callsubr
        -6 -7 -3 -7 -7 hvcurveto
        -53 -55 rlineto
        63 -60 -100 16 -87 36 callgsubr
        -59 -175 -85 36 -57 53 -37 hvcurveto
        -34 -31 -36 -45 -72 vvcurveto
        -67 44 -90 121 vhcurveto
        88 66 20 72 hhcurveto
        41 24 -7 -16 7 hvcurveto
        -3 1 2 -5 9 hhcurveto
        36 hlineto
        9 3 6 3 1 hvcurveto
        7 24 9 27 36 vvcurveto
        82 -63 46 -64 vhcurveto
        -67 -48 -20 -71 hhcurveto
        -65 -24 30 39 hvcurveto
        3 0 56 callgsubr
        -15 45 50 -6 49 hhcurveto
        173 59 callgsubr
        -3 2 4 -2 4 hhcurveto
        -51 callgsubr
        hvcurveto
        33 23 rlineto
        5 -16 3 -20 -25 vvcurveto
        -97 -39 -23 -41 -43 -41 14 103 103 53 14 31 16 15 -4 -9 13 vhcurveto
        -31 -33 rlineto
        -3 -2 -1 -4 -4 vvcurveto
        -3 1 -3 1 -1 vhcurveto
        return
      </CharString>
      <CharString index="2">
        -95 callsubr
        125 83 42 31 42 vhcurveto
        -94 callgsubr
        return
      </CharString>
      <CharString index="3">
        83 591 456 rmoveto
        -75 callsubr
        0 147 -24 27 10 8 3 13 vhcurveto
        33 callsubr
        -4 12 -22 vhcurveto
        -441 -62 callgsubr
        475 hlineto
        22 3 12 12 hvcurveto
        -60 callsubr
        return
      </CharString>
      <CharString index="4">
        rlineto
        -4 -73 callsubr
        2 -76 callgsubr
        hvcurveto
        return
      </CharString>
      <CharString index="5">
        rmoveto
        -11 58 callsubr
        hvcurveto
        -22 -3 -5 -21 -30 -23 -46 47 -47 hhcurveto
        -54 -36 -56 -65 -8 hvcurveto
        -4 -1 -5 -13 13 hhcurveto
        49 hlineto
        13 9 callsubr
        1 hvcurveto
        21 2 6 20 29 22 47 -47 47 hhcurveto
        53 35 58 66 10 hvcurveto
        7 1 1 8 -9 hhcurveto
        endchar
      </CharString>
      <CharString index="6">
        -99 callsubr
        -231 133 -40 134 139 136 49 222 vhcurveto
        return
      </CharString>
      <CharString index="7">
        rmoveto
        -35 28 -29 35 36 28 29 35 36 -28 28 -36 -35 -28 -28 -36 vhcurveto
        191 hmoveto
        -35 29 -29 35 35 29 29 35 36 -29 28 -35 -35 -29 -28 -36 vhcurveto
        endchar
      </CharString>
      <CharString index="8">
        305 612 470 rmoveto
        24 -8 -12 6 -28 callsubr
        -16 -5 2 -6 2 -7 hvcurveto
        42 -111 -29 -88 -80 209 rlineto
        23 -9 -11 7 -28 callsubr
        -17 -5 1 -5 3 -7 hvcurveto
        165 -415 -59 callgsubr
        78 188 71 -189 -59 callgsubr
        178 428 rlineto
        2 5 1 5 4 vvcurveto
        7 -4 5 -13 vhcurveto
        -53 hlineto
        -26 -2 -12 -16 -6 hvcurveto
        -70 -211 rlineto
        return
      </CharString>
      <CharString index="9">
        98 327 -17 rmoveto
        137 164 44 227 220 -166 43 -135 -83 callsubr
        hvcurveto
        150 117 -75 callgsubr
        return
      </CharString>
      <CharString index="10">
        -93 callsubr
        277 hlineto
        16 17 11 23 7 -1 7 -3 9 hvcurveto
        -225 599 return
      </CharString>
      <CharString index="11">
        -85 callgsubr
        -200 154 -67 147 120 84 40 30 42 hvcurveto
        -67 callgsubr
        return
      </CharString>
      <CharString index="12">
        -84 callgsubr
        -294 178 -78 147 107 87 37 31 40 hvcurveto
        -67 callsubr
        return
      </CharString>
      <CharString index="13">
        3 49 callsubr
        -52 callsubr
        -18 63 callgsubr
        -3 -1 1 -6 -7 -24 -23 -35 hhcurveto
        -96 185 -58 callgsubr
        return
      </CharString>
      <CharString index="14">
        32 21 -21 7 11 callsubr
        1 3 2 hvcurveto
        21 34 21 callsubr
        58 callgsubr
        4 -4 2 45 callsubr
        31 -40 -87 37 21 callgsubr
        -178 return
      </CharString>
      <CharString index="15">
        31 5 50 -76 -86 callsubr
        return
      </CharString>
      <CharString index="16">
        90 555 -1 50 callgsubr
        7 -4 12 callsubr
        30 17 rlineto
        7 5 9 7 10 vvcurveto
        4 -2 4 -3 5 vhcurveto
        -98 129 rlineto
        47 48 32 77 125 vvcurveto
        218 -133 64 -141 -86 callsubr
        -565 vlineto
        -81 callsubr
        216 hlineto
        57 16 26 42 hvcurveto
        36 vlineto
        27 6 26 9 25 14 rrcurveto
        56 59 callgsubr
        -129 -40 -91 -94 -22 vhcurveto
        461 vlineto
        94 -18 40 -84 -117 vvcurveto
        return
      </CharString>
      <CharString index="17">
        -91 callsubr
        83 -37 44 -62 return
      </CharString>
      <CharString index="18">
        52 -77 callgsubr
        210 hlineto
        62 13 -90 callgsubr
        -35 -32 70 callgsubr
        vhcurveto
        15 -8 -23 -36 callsubr
        return
      </CharString>
      <CharString index="19">
        rmoveto
        1 2 1 2 4 callsubr
        -1 3 -4 3 vhcurveto
        -51 42 50 callsubr
        5 callgsubr
        hhcurveto
        -4 63 callsubr
        -2 hvcurveto
        -105 -144 rlineto
        return
      </CharString>
      <CharString index="20">
        45 68 rmoveto
        -45 13 -23 62 vhcurveto
        209 -79 callgsubr
        return
      </CharString>
      <CharString index="21">
        52 405 419 rmoveto
        31 5 50 -76 -19 callsubr
        -96 callsubr
        -275 vlineto
        -123 64 -44 140 return
      </CharString>
      <CharString index="22">
        33 381 247 rmoveto
        132 63 38 43 vhcurveto
        -54 callgsubr
        1 vvcurveto
        5 -3 2 -3 2 vhcurveto
        32 -42 -94 36 -107 -16 callsubr
        return
      </CharString>
      <CharString index="23">
        399 353 rmoveto
        240 63 34 43 vhcurveto
        -93 callgsubr
        -78 -293 return
      </CharString>
      <CharString index="24">
        15 hhcurveto
        29 13 -20 -37 hvcurveto
        -365 vlineto
        -11 3 -12 -72 callsubr
        360 vlineto
        return
      </CharString>
      <CharString index="25">
        hlineto
        61 -54 callsubr
        -61 -19 callsubr
        -96 callsubr
        return
      </CharString>
      <CharString index="26">
        6 32 440 rmoveto
        -13 10 -2 7 33 133 7 0 vhcurveto
        -190 -368 rlineto
        -11 -21 -4 -10 -13 vvcurveto
        -10 9 -10 19 vhcurveto
        490 hlineto
        22 6 10 callgsubr
        35 vlineto
        13 -12 3 -11 -20 -161 -6 0 vhcurveto
        194 381 rlineto
        6 11 3 10 9 vvcurveto
        15 -9 5 -24 vhcurveto
        -472 hlineto
        -15 -3 -5 -11 hvcurveto
        return
      </CharString>
      <CharString index="27">
        -14 -28 callgsubr
        71 9 23 46 hvcurveto
        247 vlineto
        161 125 rlineto
        9 75 callgsubr
        vvcurveto
        6 -3 6 -4 4 vhcurveto
        -22 23 rlineto
        4 -4 -6 3 -7 hhcurveto
        -6 -6 -3 -7 -8 hvcurveto
        -108 -105 rlineto
        36 vlineto
        47 -33 callsubr
        return
      </CharString>
      <CharString index="28">
        -39 callsubr
        541 vlineto
        -92 callgsubr
        return
      </CharString>
      <CharString index="29">
        rmoveto
        -39 33 -32 39 40 32 32 39 40 -32 33 -40 -39 -33 -33 -40 vhcurveto
        endchar
      </CharString>
      <CharString index="30">
        45 68 rmoveto
        -81 callsubr
        return
      </CharString>
      <CharString index="31">
        2 56 callsubr
        return
      </CharString>
      <CharString index="32">
        rmoveto
        -43 -39 18 132 132 51 18 31 40 42 -29 -117 -124 -41 -30 -41 hvcurveto
        return
      </CharString>
      <CharString index="33">
        38 -28 callgsubr
        66 14 22 45 hvcurveto
        204 vlineto
        62 -2 21 -18 -59 vvcurveto
        -169 vlineto
        -11 3 -12 -72 callsubr
        164 vlineto
        90 -37 45 -109 3 vhcurveto
        153 113 rlineto
        12 8 4 8 6 vvcurveto
        5 -2 4 -3 4 vhcurveto
        -25 25 rlineto
        4 -4 74 callsubr
        -7 -2 -7 -7 hvcurveto
        -117 -117 rlineto
        return
      </CharString>
      <CharString index="34">
        298 -168 73 -157 -62 callsubr
        return
      </CharString>
      <CharString index="35">
        164 738 689 -5 callsubr
        -34 22 rlineto
        2 -3 -3 1 -2 39 callgsubr
        -4 -3 hvcurveto
        -70 -118 rlineto
        88 -63 -100 27 -95 71 callgsubr
        -230 100 -97 118 -32 hvcurveto
        -66 -112 rlineto
        -2 -4 -12 callgsubr
        -5 2 -3 4 10 callsubr
        -23 rlineto
        -2 2 3 -1 3 hhcurveto
        4 4 3 4 2 hvcurveto
        82 138 rlineto
        -1 12 13 0 12 hhcurveto
        157 168 74 298 76 -11 62 -19 50 hvcurveto
        -39 -188 rmoveto
        -163 -53 -51 -53 -25 -25 11 30 -20 vhcurveto
        166 278 rlineto
        6 -28 4 -34 -43 vvcurveto
        -212 hmoveto
        -8 callgsubr
        22 23 -9 -24 19 vhcurveto
        -163 -274 rlineto
        -5 26 -2 30 37 vvcurveto
        return
      </CharString>
      <CharString index="36">
        98 676 523 -5 callsubr
        -35 22 rlineto
        2 -3 29 callsubr
        39 callgsubr
        -4 -2 hvcurveto
        -67 -113 rlineto
        54 -61 -88 15 -78 65 callgsubr
        122 -71 131 -14 hvcurveto
        -62 -103 rlineto
        -2 -4 -12 callgsubr
        -5 3 55 callsubr
        33 -23 rlineto
        -2 -73 callsubr
        5 4 3 4 1 hvcurveto
        83 139 rlineto
        131 6 143 53 212 vvcurveto
        57 -11 45 -19 36 vhcurveto
        -121 -292 rmoveto
        -17 -15 3 10 -13 hvcurveto
        122 205 rlineto
        3 -18 2 -21 -25 vvcurveto
        -124 -41 -30 -41 vhcurveto
        -82 150 rmoveto
        132 51 18 31 14 14 -4 -9 13 vhcurveto
        -119 -200 rlineto
        -3 18 -1 20 25 vvcurveto
        return
      </CharString>
      <CharString index="37">
        986 203 rmoveto
        -4 callsubr
        35 31 43 vhcurveto
        20 8 -5 8 hhcurveto
        2 5 0 8 hvcurveto
        33 callsubr
        -8 5 -5 2 vhcurveto
        22 -44 -89 19 -72 hhcurveto
        -124 -140 -80 callsubr
        vlineto
        return
      </CharString>
      <CharString index="38">
        -40 callgsubr
        41 -135 hlineto
        -81 callsubr
        212 hlineto
        64 9 21 47 hvcurveto
        135 return
      </CharString>
      <CharString index="39">
        -47 callsubr
        -51 hlineto
        -17 -3 -12 -11 hvcurveto
        return
      </CharString>
      <CharString index="40">
        3 2 3 3 -52 callsubr
        -17 26 rlineto
        5 -4 -1 2 -6 -7 -22 -21 -33 hhcurveto
        -43 -63 37 132 hvcurveto
        return
      </CharString>
      <CharString index="41">
        vvcurveto
        -43 callgsubr
        -2 return
      </CharString>
      <CharString index="42">
        -38 callsubr
        -67 -200 return
      </CharString>
      <CharString index="43">
        4 3 8 hvcurveto
        return
      </CharString>
      <CharString index="44">
        -29 callsubr
        5 -8 5 vhcurveto
        -22 16 rlineto
        3 -6 -4 3 -57 callgsubr
        -3 4 3 -1 13 callgsubr
        return
      </CharString>
      <CharString index="45">
        hlineto
        -53 -36 -10 -75 hvcurveto
        -548 vlineto
        -35 callsubr
        61 vhcurveto
        return
      </CharString>
      <CharString index="46">
        hlineto
        12 12 1 22 hvcurveto
        return
      </CharString>
      <CharString index="47">
        275 601 18 callgsubr
        1 143 -25 32 7 10 4 12 vhcurveto
        33 callsubr
        -7 12 -19 vhcurveto
        -466 hlineto
        -30 -14 -16 -30 -13 hvcurveto
        -272 -624 rlineto
        -4 -10 -3 -7 -5 vvcurveto
        -8 8 -1 15 vhcurveto
        36 hlineto
        27 5 18 22 9 hvcurveto
        21 51 rlineto
        151 -23 hlineto
        -35 callsubr
        61 vhcurveto
        473 hlineto
        22 5 14 callgsubr
        12 -7 4 -10 -31 -162 -26 1 vhcurveto
        -493 91 rmoveto
        129 307 rlineto
        -307 vlineto
        return
      </CharString>
      <CharString index="48">
        rlineto
        -18 7 13 -27 29 hhcurveto
        78 hlineto
        24 13 16 30 12 hvcurveto
        return
      </CharString>
      <CharString index="49">
        rmoveto
        117 4 44 17 30 hhcurveto
        41 35 -30 -104 hvcurveto
        return
      </CharString>
      <CharString index="50">
        44 callgsubr
        -10 -7 hvcurveto
        -422 -34 callsubr
        7 24 callgsubr
        return
      </CharString>
      <CharString index="51">
        89 63 446 rmoveto
        -637 vlineto
        -30 25 -12 23 vhcurveto
        143 hlineto
        39 12 16 36 7 -1 136 -12 95 hvcurveto
        5 2 rlineto
        -63 11 30 -16 28 hhcurveto
        34 26 31 48 10 hvcurveto
        4 -1 rlineto
        -51 6 -7 23 vhcurveto
        89 hlineto
        11 13 1 22 hvcurveto
        451 vlineto
        22 -13 1 -11 vhcurveto
        -111 hlineto
        -24 -1 -12 -11 hvcurveto
        -335 vlineto
        -42 -25 -13 -30 -31 -22 17 38 vhcurveto
        310 vlineto
        26 -13 22 -37 vhcurveto
        -152 hlineto
        -35 -14 -23 -28 hvcurveto
        endchar
      </CharString>
      <CharString index="52">
        6 callsubr
        387 vlineto
        62 -2 21 -17 -60 vvcurveto
        -364 8 callsubr
        41 -61 callgsubr
        359 vlineto
        84 -40 44 -93 9 vhcurveto
        150 116 rlineto
        8 7 3 6 6 17 callgsubr
        -5 4 vhcurveto
        -27 29 rlineto
        6 -6 -4 4 -7 hhcurveto
        -7 -6 -5 -10 -10 hvcurveto
        -122 -118 rlineto
        57 vlineto
        31 -4 39 -67 -86 callsubr
        return
      </CharString>
      <CharString index="53">
        33 19 -20 7 78 callgsubr
        2 5 4 hvcurveto
        17 27 rlineto
        33 callgsubr
        return
      </CharString>
      <CharString index="54">
        139 60 256 rmoveto
        -188 vlineto
        -81 callsubr
        230 hlineto
        142 158 47 326 278 -148 50 -147 hvcurveto
        -235 -96 callsubr
        -307 -50 vlineto
        -47 callgsubr
        -49 -53 callsubr
        6 vhcurveto
        414 hmoveto
        77 hlineto
        2 callsubr
        49 -30 callsubr
        -8 vhcurveto
        -77 307 hlineto
        23 callsubr
        -162 -51 -132 -121 -1 vhcurveto
        endchar
      </CharString>
      <CharString index="55">
        -3 5 callgsubr
        hhcurveto
        -21 callgsubr
        return
      </CharString>
      <CharString index="56">
        3 -76 callgsubr
        return
      </CharString>
      <CharString index="57">
        vvcurveto
        -83 74 -27 -41 callsubr
        return
      </CharString>
      <CharString index="58">
        vlineto
        -42 callsubr
        return
      </CharString>
      <CharString index="59">
        -2 vvcurveto
        -2 1 55 callsubr
        return
      </CharString>
      <CharString index="60">
        -7 -31 callsubr
        return
      </CharString>
      <CharString index="61">
        rmoveto
        -66 callsubr
        return
      </CharString>
      <CharString index="62">
        -39 callgsubr
        vhcurveto
        return
      </CharString>
      <CharString index="63">
        rmoveto
        3 5 2 5 5 17 callgsubr
        -7 5 vhcurveto
        -49 32 rlineto
        4 -6 -5 66 callsubr
        -9 -6 hvcurveto
        -140 -189 rlineto
        -5 -7 -1 -5 -4 vvcurveto
        -8 return
      </CharString>
      <CharString index="64">
        2 -1 3 return
      </CharString>
      <CharString index="65">
        -89 73 -73 90 89 73 73 89 -10 callgsubr
        vhcurveto
        return
      </CharString>
      <CharString index="66">
        -3 callsubr
        -84 74 -93 -92 -64 -51 callsubr
        return
      </CharString>
      <CharString index="67">
        -41 vlineto
        -33 callgsubr
        return
      </CharString>
      <CharString index="68">
        62 -51 51 -62 -62 -51 -51 -62 return
      </CharString>
      <CharString index="69">
        -391 325 -29 callsubr
        5 -9 5 vhcurveto
        -22 16 rlineto
        3 -5 39 callsubr
        -6 -4 -3 -10 -7 hvcurveto
        -423 -34 callsubr
        8 24 callgsubr
        -3 3 3 -1 4 hhcurveto
        9 5 7 5 4 hvcurveto
        endchar
      </CharString>
      <CharString index="70">
        229 322 rmoveto
        16 42 callsubr
        -5 5 -7 -8 -9 -12 -3 -3 vhcurveto
        -173 54 callsubr
        -5 -6 -5 -6 vvcurveto
        -6 6 -5 4 -5 vhcurveto
        173 54 callsubr
        3 9 -11 8 hhcurveto
        7 5 43 callgsubr
        -16 16 vhcurveto
        -64 68 rlineto
        return
      </CharString>
      <CharString index="71">
        31 callgsubr
        5 -5 7 8 9 11 4 3 vhcurveto
        173 208 rlineto
        4 5 6 5 6 vvcurveto
        6 -6 5 -4 5 vhcurveto
        -173 208 rlineto
        3 -3 -9 12 -8 hhcurveto
        -7 -5 12 callgsubr
        endchar
      </CharString>
      <CharString index="72">
        -7 callgsubr
        vhcurveto
        return
      </CharString>
      <CharString index="73">
        -44 callgsubr
        7 -4 6 0 callsubr
        endchar
      </CharString>
      <CharString index="74">
        -7 -3 -3 -7 71 callsubr
        return
      </CharString>
      <CharString index="75">
        -62 51 -51 62 62 51 51 62 return
      </CharString>
      <CharString index="76">
        rlineto
        77 callsubr
        -2 -2 vvcurveto
        return
      </CharString>
      <CharString index="77">
        124 -77 callgsubr
        230 hlineto
        142 158 47 326 278 -148 50 -147 hvcurveto
        -235 -96 callsubr
        536 -270 rmoveto
        -162 -50 -132 -122 -1 vhcurveto
        565 vlineto
        23 callsubr
        return
      </CharString>
      <CharString index="78">
        -3 4 -7 vhcurveto
        return
      </CharString>
      <CharString index="79">
        -77 callgsubr
        205 hlineto
        return
      </CharString>
      <CharString index="80">
        32 callgsubr
        -41 32 callsubr
        -235 -9 callsubr
        41 -14 callsubr
        return
      </CharString>
      <CharString index="81">
        -13 -27 -9 hvcurveto
        -60 -199 rlineto
        -1 -6 -1 -5 -4 vvcurveto
        -18 12 -8 33 vhcurveto
        211 -84 hlineto
        -7 2 -7 11 vhcurveto
        49 hlineto
        12 4 4 10 hvcurveto
        84 45 vlineto
        4 3 2 4 hvcurveto
        44 vlineto
        5 -2 2 -5 vhcurveto
        return
      </CharString>
      <CharString index="82">
        rmoveto
        -42 callgsubr
        return
      </CharString>
      <CharString index="83">
        12 22 45 hvcurveto
        665 vlineto
        46 -11 22 return
      </CharString>
      <CharString index="84">
        rlineto
        4 -3 -2 1 return
      </CharString>
      <CharString index="85">
        rmoveto
        34 -27 29 -32 5 vhcurveto
        27 61 rlineto
        2 3 1 3 2 vvcurveto
        3 -3 2 -6 vhcurveto
        -36 hlineto
        -11 -1 -5 -9 -5 hvcurveto
        -38 -92 rlineto
        -4 -10 -5 -14 -12 vvcurveto
        -37 31 -31 38 37 32 31 37 vhcurveto
        endchar
      </CharString>
      <CharString index="86">
        -3 -2 -2 return
      </CharString>
      <CharString index="87">
        rmoveto
        55 -191 rlineto
        -106 hlineto
        return
      </CharString>
      <CharString index="88">
        vlineto
        -47 callsubr
        return
      </CharString>
      <CharString index="89">
        hlineto
        -69 -35 -45 -52 -48 vvcurveto
        -83 75 -27 71 28 46 4 11 25 vhcurveto
        13 5 7 9 callgsubr
        -3 2 -4 vhcurveto
        -14 -19 -15 -62 hhcurveto
        -57 -17 19 27 41 74 53 66 30 hvcurveto
        return
      </CharString>
      <CharString index="90">
        vlineto
        -126 10 rlineto
        -22 1 -10 -13 -12 vvcurveto
        -37 vlineto
        -13 12 -12 20 2 vhcurveto
        126 14 rlineto
        return
      </CharString>
      <CharString index="91">
        -4 callgsubr
        -214 hlineto
        return
      </CharString>
      <CharString index="92">
        -19 309 42 callgsubr
        36 callsubr
        -37 13 callsubr
        hvcurveto
        -180 -17 callgsubr
        return
      </CharString>
      <CharString index="93">
        -61 callsubr
        39 -49 callgsubr
        return
      </CharString>
      <CharString index="94">
        -2 -1 -2 return
      </CharString>
      <CharString index="95">
        -1 22 callgsubr
        return
      </CharString>
      <CharString index="96">
        -165 332 164 rmoveto
        -61 callsubr
        117 -30 callsubr
        -7 vhcurveto
        -273 -46 callsubr
        -117 -53 callsubr
        6 vhcurveto
        endchar
      </CharString>
      <CharString index="97">
        90 -73 73 -89 -90 -73 -73 -90 return
      </CharString>
      <CharString index="98">
        -53 callsubr
        7 vhcurveto
        return
      </CharString>
      <CharString index="99">
        163 53 51 53 return
      </CharString>
      <CharString index="100">
        2 -2 3 return
      </CharString>
      <CharString index="101">
        52 405 732 rmoveto
        47 -12 21 -59 -19 callsubr
        -96 callsubr
        return
      </CharString>
      <CharString index="102">
        rmoveto
        74 vlineto
        8 -4 5 -11 vhcurveto
        -50 hlineto
        -11 -2 -7 -6 hvcurveto
        -74 -50 vlineto
        46 175 rlineto
        2 6 1 7 8 vvcurveto
        14 -8 13 -34 vhcurveto
        -93 hlineto
        return
      </CharString>
      <CharString index="103">
        45 -13 23 -62 vhcurveto
        return
      </CharString>
      <CharString index="104">
        599 732 rmoveto
        -16 callgsubr
        -60 -11 -23 -46 hvcurveto
        return
      </CharString>
      <CharString index="105">
        2 -1 2 hhcurveto
        4 56 callsubr
        3 hvcurveto
        return
      </CharString>
      <CharString index="106">
        -3 vvcurveto
        -1 return
      </CharString>
      <CharString index="107">
        -50 callgsubr
        -15 -18 -15 -63 hhcurveto
        -56 -18 19 return
      </CharString>
      <CharString index="108">
        -61 callsubr
        39 -30 callsubr
        -7 vhcurveto
        return
      </CharString>
      <CharString index="109">
        hlineto
        -21 -3 -12 -17 -6 hvcurveto
        -68 return
      </CharString>
      <CharString index="110">
        -11 3 -12 17 vhcurveto
        return
      </CharString>
      <CharString index="111">
        2 -3 3 return
      </CharString>
      <CharString index="112">
        -2 1 -2 return
      </CharString>
      <CharString index="113">
        rmoveto
        98 43 76 101 11 vhcurveto
        -368 vlineto
        -101 12 -43 75 96 vvcurveto
        return
      </CharString>
      <CharString index="114">
        37 callgsubr
        -1 hvcurveto
        -8 -37 return
      </CharString>
      <CharString index="115">
        39 callgsubr
        -8 hvcurveto
        return
      </CharString>
      <CharString index="116">
        3 12 vvcurveto
        70 callsubr
        return
      </CharString>
      <CharString index="117">
        12 12 hvcurveto
        return
      </CharString>
      <CharString index="118">
        hlineto
        -25 -152 rlineto
        0 -1 -5 -3 vvcurveto
        -14 10 -1 11 vhcurveto
        15 hlineto
        17 5 12 11 2 hvcurveto
        25 152 rlineto
        return
      </CharString>
      <CharString index="119">
        -5 -10 hvcurveto
        -107 vlineto
        -13 -1 -20 15 -16 vhcurveto
        65 -68 rlineto
        return
      </CharString>
      <CharString index="120">
        4 hhcurveto
        8 6 7 5 4 hvcurveto
        return
      </CharString>
      <CharString index="121">
        10 callgsubr
        45 vlineto
        return
      </CharString>
      <CharString index="122">
        vhcurveto
        49 -32 rlineto
        -4 5 6 -3 55 callgsubr
        3 9 6 hvcurveto
        140 189 rlineto
        4 6 2 5 return
      </CharString>
      <CharString index="123">
        -81 callsubr
        214 hlineto
        59 12 22 46 hvcurveto
        133 vlineto
        113 18 100 71 164 vvcurveto
        return
      </CharString>
      <CharString index="124">
        vvcurveto
        5 -2 5 return
      </CharString>
      <CharString index="125">
        456 rmoveto
        182 hlineto
        -75 callsubr
        return
      </CharString>
      <CharString index="126">
        -135 rmoveto
        -43 -39 38 97 97 39 38 43 43 39 -38 -97 -97 -39 -38 -43 hvcurveto
        endchar
      </CharString>
      <CharString index="127">
        rlineto
        10 -3 -13 57 callsubr
        return
      </CharString>
      <CharString index="128">
        -107 hhcurveto
        -147 return
      </CharString>
      <CharString index="129">
        -3 -2 vvcurveto
        return
      </CharString>
      <CharString index="130">
        rmoveto
        -100 81 -81 100 100 81 81 100 100 -81 81 -100 -100 -81 -81 -100 vhcurveto
        endchar
      </CharString>
      <CharString index="131">
        -4 vhcurveto
        23 -15 rlineto
        return
      </CharString>
      <CharString index="132">
        -43 callgsubr
        hhcurveto
        return
      </CharString>
      <CharString index="133">
        -1 vvcurveto
        -4 2 return
      </CharString>
      <CharString index="134">
        rlineto
        -1 -2 return
      </CharString>
      <CharString index="135">
        1 vvcurveto
        9 -5 6 -13 vhcurveto
        -15 13 callsubr
        -4 hvcurveto
        -26 -152 rlineto
        return
      </CharString>
      <CharString index="136">
        -66 callsubr
        endchar
      </CharString>
      <CharString index="137">
        rmoveto
        -80 -40 -65 -94 -14 vhcurveto
        303 vlineto
        94 -11 40 -55 -78 vvcurveto
        endchar
      </CharString>
      <CharString index="138">
        rmoveto
        -15 -16 1 -20 -13 vvcurveto
        -107 vlineto
        -10 return
      </CharString>
      <CharString index="139">
        rmoveto
        11 -3 12 -17 vhcurveto
        return
      </CharString>
      <CharString index="140">
        2 3 0 2 return
      </CharString>
      <CharString index="141">
        -1 -4 -3 return
      </CharString>
      <CharString index="142">
        24 callsubr
        -3 vvcurveto
        -11 10 -4 10 -2 vhcurveto
        31 -7 rlineto
        -1 return
      </CharString>
      <CharString index="143">
        hhcurveto
        -38 callsubr
        return
      </CharString>
      <CharString index="144">
        hhcurveto
        77 callsubr
        -4 return
      </CharString>
      <CharString index="145">
        -4 vvcurveto
        -11 8 1 3 68 26 -22 -32 -27 -20 -25 -57 vhcurveto
        -56 return
      </CharString>
      <CharString index="146">
        69 callsubr
        -2 return
      </CharString>
      <CharString index="147">
        hlineto
        -7 -3 return
      </CharString>
      <CharString index="148">
        hlineto
        74 callgsubr
        -88 vlineto
        -7 4 -3 6 vhcurveto
        endchar
      </CharString>
      <CharString index="149">
        678 rmoveto
        return
      </CharString>
      <CharString index="150">
        5 10 hvcurveto
        107 vlineto
        13 1 20 return
      </CharString>
      <CharString index="151">
        -6 hhcurveto
        -5 -5 -3 return
      </CharString>
      <CharString index="152">
        26 callgsubr
        -2 return
      </CharString>
      <CharString index="153">
        -3 3 -2 return
      </CharString>
      <CharString index="154">
        vlineto
        7 3 3 8 hvcurveto
        49 vlineto
        7 -2 4 -8 vhcurveto
        return
      </CharString>
      <CharString index="155">
        -4 76 callgsubr
        -15 -18 -16 -63 hhcurveto
        -56 -18 20 27 return
      </CharString>
      <CharString index="156">
        -4 -2 -2 return
      </CharString>
      <CharString index="157">
        rmoveto
        -11 6 return
      </CharString>
      <CharString index="158">
        -4 hvcurveto
        -70 -46 rlineto
        -7 -5 -6 -4 -8 vvcurveto
        -5 return
      </CharString>
      <CharString index="159">
        -42 callsubr
        -84 -46 callsubr
        return
      </CharString>
      <CharString index="160">
        55 callgsubr
        3 4 6 hvcurveto
        49 32 rlineto
        7 return
      </CharString>
      <CharString index="161">
        rmoveto
        -3 -5 -3 -5 -5 vvcurveto
        return
      </CharString>
      <CharString index="162">
        5 hhcurveto
        6 5 return
      </CharString>
      <CharString index="163">
        3 3 vvcurveto
        return
      </CharString>
      <CharString index="164">
        3 -11 -21 return
      </CharString>
      <CharString index="165">
        1 1 vvcurveto
        return
      </CharString>
      <CharString index="166">
        277 rmoveto
        return
      </CharString>
      <CharString index="167">
        6 3 2 4 -3 7 rlinecurve
        -21 45 -3 6 return
      </CharString>
      <CharString index="168">
        -5 hhcurveto
        -2 -2 1 -4 -1 hvcurveto
        -12 -36 -1 return
      </CharString>
      <CharString index="169">
        2 -6 callsubr
        return
      </CharString>
      <CharString index="170">
        27 rlineto
        5 return
      </CharString>
      <CharString index="171">
        68 rmoveto
        -81 callsubr
        213 hlineto
        return
      </CharString>
      <CharString index="172">
        -16 callsubr
        -180 return
      </CharString>
      <CharString index="173">
        hvcurveto
        9 callsubr
        3 4 vvcurveto
        2 -1 2 return
      </CharString>
      <CharString index="174" raw="1">
        80a14f1e 0b  
      </CharString>
      <CharString index="175">
        -3 3 hhcurveto
        2 return
      </CharString>
      <CharString index="176">
        9 callsubr
        hvcurveto
        return
      </CharString>
      <CharString index="177">
        -17 -13 -17 return
      </CharString>
      <CharString index="178">
        hhcurveto
        -32 callsubr
        return
      </CharString>
      <CharString index="179">
        2 vvcurveto
        5 -2 4 -7 4 vhcurveto
        return
      </CharString>
      <CharString index="180">
        -135 -166 -166 -135 return
      </CharString>
      <CharString index="181">
        -7 75 callsubr
        return
      </CharString>
      <CharString index="182">
        7 4 8 7 return
      </CharString>
      <CharString index="183">
        2 -3 vhcurveto
        return
      </CharString>
      <CharString index="184">
        -1 -4 -1 return
      </CharString>
      <CharString index="185">
        hhcurveto
        6 1 return
      </CharString>
</ttFont>
